%TF.GenerationSoftware,KiCad,Pcbnew,9.0.2*%
%TF.CreationDate,2025-07-16T18:53:34+05:00*%
%TF.ProjectId,SR-U2764,53522d55-3237-4363-942e-6b696361645f,rev?*%
%TF.SameCoordinates,Original*%
%TF.FileFunction,Soldermask,Top*%
%TF.FilePolarity,Negative*%
%FSLAX46Y46*%
G04 Gerber Fmt 4.6, Leading zero omitted, Abs format (unit mm)*
G04 Created by KiCad (PCBNEW 9.0.2) date 2025-07-16 18:53:34*
%MOMM*%
%LPD*%
G01*
G04 APERTURE LIST*
G04 Aperture macros list*
%AMRoundRect*
0 Rectangle with rounded corners*
0 $1 Rounding radius*
0 $2 $3 $4 $5 $6 $7 $8 $9 X,Y pos of 4 corners*
0 Add a 4 corners polygon primitive as box body*
4,1,4,$2,$3,$4,$5,$6,$7,$8,$9,$2,$3,0*
0 Add four circle primitives for the rounded corners*
1,1,$1+$1,$2,$3*
1,1,$1+$1,$4,$5*
1,1,$1+$1,$6,$7*
1,1,$1+$1,$8,$9*
0 Add four rect primitives between the rounded corners*
20,1,$1+$1,$2,$3,$4,$5,0*
20,1,$1+$1,$4,$5,$6,$7,0*
20,1,$1+$1,$6,$7,$8,$9,0*
20,1,$1+$1,$8,$9,$2,$3,0*%
%AMFreePoly0*
4,1,37,0.603843,0.796157,0.639018,0.796157,0.711114,0.766294,0.766294,0.711114,0.796157,0.639018,0.796157,0.603843,0.800000,0.600000,0.800000,-0.600000,0.796157,-0.603843,0.796157,-0.639018,0.766294,-0.711114,0.711114,-0.766294,0.639018,-0.796157,0.603843,-0.796157,0.600000,-0.800000,0.000000,-0.800000,0.000000,-0.796148,-0.078414,-0.796148,-0.232228,-0.765552,-0.377117,-0.705537,
-0.507515,-0.618408,-0.618408,-0.507515,-0.705537,-0.377117,-0.765552,-0.232228,-0.796148,-0.078414,-0.796148,0.078414,-0.765552,0.232228,-0.705537,0.377117,-0.618408,0.507515,-0.507515,0.618408,-0.377117,0.705537,-0.232228,0.765552,-0.078414,0.796148,0.000000,0.796148,0.000000,0.800000,0.600000,0.800000,0.603843,0.796157,0.603843,0.796157,$1*%
%AMFreePoly1*
4,1,37,0.000000,0.796148,0.078414,0.796148,0.232228,0.765552,0.377117,0.705537,0.507515,0.618408,0.618408,0.507515,0.705537,0.377117,0.765552,0.232228,0.796148,0.078414,0.796148,-0.078414,0.765552,-0.232228,0.705537,-0.377117,0.618408,-0.507515,0.507515,-0.618408,0.377117,-0.705537,0.232228,-0.765552,0.078414,-0.796148,0.000000,-0.796148,0.000000,-0.800000,-0.600000,-0.800000,
-0.603843,-0.796157,-0.639018,-0.796157,-0.711114,-0.766294,-0.766294,-0.711114,-0.796157,-0.639018,-0.796157,-0.603843,-0.800000,-0.600000,-0.800000,0.600000,-0.796157,0.603843,-0.796157,0.639018,-0.766294,0.711114,-0.711114,0.766294,-0.639018,0.796157,-0.603843,0.796157,-0.600000,0.800000,0.000000,0.800000,0.000000,0.796148,0.000000,0.796148,$1*%
G04 Aperture macros list end*
%ADD10C,1.700000*%
%ADD11C,4.000000*%
%ADD12C,2.200000*%
%ADD13RoundRect,0.250000X0.550000X-0.550000X0.550000X0.550000X-0.550000X0.550000X-0.550000X-0.550000X0*%
%ADD14C,1.600000*%
%ADD15RoundRect,0.200000X-0.600000X0.600000X-0.600000X-0.600000X0.600000X-0.600000X0.600000X0.600000X0*%
%ADD16FreePoly0,270.000000*%
%ADD17FreePoly1,270.000000*%
%ADD18C,2.700000*%
%ADD19R,1.700000X1.700000*%
G04 APERTURE END LIST*
D10*
%TO.C,SW11*%
X265238750Y-46600000D03*
D11*
X270318750Y-46600000D03*
D10*
X275398750Y-46600000D03*
D12*
X272858750Y-41520000D03*
X266508750Y-44060000D03*
%TD*%
D13*
%TO.C,D72*%
X243840000Y-156210000D03*
D14*
X243840000Y-148590000D03*
%TD*%
D13*
%TO.C,D46*%
X140970000Y-118110000D03*
D14*
X140970000Y-110490000D03*
%TD*%
D13*
%TO.C,D10*%
X260604000Y-49022000D03*
D14*
X260604000Y-41402000D03*
%TD*%
D10*
%TO.C,SW62*%
X193801250Y-132325000D03*
D11*
X198881250Y-132325000D03*
D10*
X203961250Y-132325000D03*
D12*
X201421250Y-127245000D03*
X195071250Y-129785000D03*
%TD*%
D10*
%TO.C,SW56*%
X79501250Y-132325000D03*
D11*
X84581250Y-132325000D03*
D10*
X89661250Y-132325000D03*
D12*
X87121250Y-127245000D03*
X80771250Y-129785000D03*
%TD*%
D10*
%TO.C,SW19*%
X131888750Y-75175000D03*
D11*
X136968750Y-75175000D03*
D10*
X142048750Y-75175000D03*
D12*
X139508750Y-70095000D03*
X133158750Y-72635000D03*
%TD*%
D13*
%TO.C,D75*%
X316230000Y-156210000D03*
D14*
X316230000Y-148590000D03*
%TD*%
D10*
%TO.C,SW31*%
X103313750Y-94225000D03*
D11*
X108393750Y-94225000D03*
D10*
X113473750Y-94225000D03*
D12*
X110933750Y-89145000D03*
X104583750Y-91685000D03*
%TD*%
D10*
%TO.C,SW58*%
X117601250Y-132325000D03*
D11*
X122681250Y-132325000D03*
D10*
X127761250Y-132325000D03*
D12*
X125221250Y-127245000D03*
X118871250Y-129785000D03*
%TD*%
D13*
%TO.C,D37*%
X232410000Y-99060000D03*
D14*
X232410000Y-91440000D03*
%TD*%
D13*
%TO.C,D22*%
X203200000Y-78740000D03*
D14*
X203200000Y-71120000D03*
%TD*%
D13*
%TO.C,D39*%
X270510000Y-99060000D03*
D14*
X270510000Y-91440000D03*
%TD*%
D13*
%TO.C,D14*%
X51308000Y-78486000D03*
D14*
X51308000Y-70866000D03*
%TD*%
D10*
%TO.C,SW49*%
X184276250Y-113275000D03*
D11*
X189356250Y-113275000D03*
D10*
X194436250Y-113275000D03*
D12*
X191896250Y-108195000D03*
X185546250Y-110735000D03*
%TD*%
D13*
%TO.C,D65*%
X265430000Y-137160000D03*
D14*
X265430000Y-129540000D03*
%TD*%
D10*
%TO.C,SW72*%
X229520000Y-151375000D03*
D11*
X234600000Y-151375000D03*
D10*
X239680000Y-151375000D03*
D12*
X237140000Y-146295000D03*
X230790000Y-148835000D03*
%TD*%
D13*
%TO.C,D56*%
X93980000Y-137160000D03*
D14*
X93980000Y-129540000D03*
%TD*%
D10*
%TO.C,SW38*%
X236663750Y-94225000D03*
D11*
X241743750Y-94225000D03*
D10*
X246823750Y-94225000D03*
D12*
X244283750Y-89145000D03*
X237933750Y-91685000D03*
%TD*%
D10*
%TO.C,SW17*%
X93788750Y-75175000D03*
D11*
X98868750Y-75175000D03*
D10*
X103948750Y-75175000D03*
D12*
X101408750Y-70095000D03*
X95058750Y-72635000D03*
%TD*%
D10*
%TO.C,SW67*%
X346201250Y-132325000D03*
D11*
X351281250Y-132325000D03*
D10*
X356361250Y-132325000D03*
D12*
X353821250Y-127245000D03*
X347471250Y-129785000D03*
%TD*%
D13*
%TO.C,D20*%
X165100000Y-78740000D03*
D14*
X165100000Y-71120000D03*
%TD*%
D10*
%TO.C,SW63*%
X212851250Y-132325000D03*
D11*
X217931250Y-132325000D03*
D10*
X223011250Y-132325000D03*
D12*
X220471250Y-127245000D03*
X214121250Y-129785000D03*
%TD*%
D13*
%TO.C,D9*%
X232664000Y-49022000D03*
D14*
X232664000Y-41402000D03*
%TD*%
D13*
%TO.C,D59*%
X151130000Y-137160000D03*
D14*
X151130000Y-129540000D03*
%TD*%
D10*
%TO.C,SW65*%
X250951250Y-132325000D03*
D11*
X256031250Y-132325000D03*
D10*
X261111250Y-132325000D03*
D12*
X258571250Y-127245000D03*
X252221250Y-129785000D03*
%TD*%
D10*
%TO.C,SW50*%
X203326250Y-113275000D03*
D11*
X208406250Y-113275000D03*
D10*
X213486250Y-113275000D03*
D12*
X210946250Y-108195000D03*
X204596250Y-110735000D03*
%TD*%
D10*
%TO.C,SW29*%
X65213750Y-94225000D03*
D11*
X70293750Y-94225000D03*
D10*
X75373750Y-94225000D03*
D12*
X72833750Y-89145000D03*
X66483750Y-91685000D03*
%TD*%
D13*
%TO.C,D6*%
X175260000Y-48514000D03*
D14*
X175260000Y-40894000D03*
%TD*%
D10*
%TO.C,SW75*%
X300957500Y-151375000D03*
D11*
X306037500Y-151375000D03*
D10*
X311117500Y-151375000D03*
D12*
X308577500Y-146295000D03*
X302227500Y-148835000D03*
%TD*%
D13*
%TO.C,D38*%
X251460000Y-99060000D03*
D14*
X251460000Y-91440000D03*
%TD*%
D13*
%TO.C,D4*%
X127508000Y-48514000D03*
D14*
X127508000Y-40894000D03*
%TD*%
D13*
%TO.C,D25*%
X260350000Y-78740000D03*
D14*
X260350000Y-71120000D03*
%TD*%
D13*
%TO.C,D3*%
X108204000Y-48514000D03*
D14*
X108204000Y-40894000D03*
%TD*%
D13*
%TO.C,D21*%
X184150000Y-78740000D03*
D14*
X184150000Y-71120000D03*
%TD*%
D13*
%TO.C,D71*%
X172720000Y-156210000D03*
D14*
X172720000Y-148590000D03*
%TD*%
D10*
%TO.C,SW24*%
X227138750Y-75175000D03*
D11*
X232218750Y-75175000D03*
D10*
X237298750Y-75175000D03*
D12*
X234758750Y-70095000D03*
X228408750Y-72635000D03*
%TD*%
D10*
%TO.C,SW41*%
X298576250Y-94225000D03*
D11*
X303656250Y-94225000D03*
D10*
X308736250Y-94225000D03*
D12*
X306196250Y-89145000D03*
X299846250Y-91685000D03*
%TD*%
D13*
%TO.C,D60*%
X170180000Y-137160000D03*
D14*
X170180000Y-129540000D03*
%TD*%
D10*
%TO.C,SW25*%
X246188750Y-75175000D03*
D11*
X251268750Y-75175000D03*
D10*
X256348750Y-75175000D03*
D12*
X253808750Y-70095000D03*
X247458750Y-72635000D03*
%TD*%
D13*
%TO.C,D44*%
X102870000Y-118110000D03*
D14*
X102870000Y-110490000D03*
%TD*%
D13*
%TO.C,D53*%
X274320000Y-118110000D03*
D14*
X274320000Y-110490000D03*
%TD*%
D13*
%TO.C,D63*%
X227330000Y-137160000D03*
D14*
X227330000Y-129540000D03*
%TD*%
D10*
%TO.C,SW78*%
X365251250Y-151375000D03*
D11*
X370331250Y-151375000D03*
D10*
X375411250Y-151375000D03*
D12*
X372871250Y-146295000D03*
X366521250Y-148835000D03*
%TD*%
D10*
%TO.C,SW36*%
X198563750Y-94225000D03*
D11*
X203643750Y-94225000D03*
D10*
X208723750Y-94225000D03*
D12*
X206183750Y-89145000D03*
X199833750Y-91685000D03*
%TD*%
D10*
%TO.C,SW16*%
X74738750Y-75175000D03*
D11*
X79818750Y-75175000D03*
D10*
X84898750Y-75175000D03*
D12*
X82358750Y-70095000D03*
X76008750Y-72635000D03*
%TD*%
D13*
%TO.C,D42*%
X58420000Y-118110000D03*
D14*
X58420000Y-110490000D03*
%TD*%
D10*
%TO.C,SW47*%
X146176250Y-113275000D03*
D11*
X151256250Y-113275000D03*
D10*
X156336250Y-113275000D03*
D12*
X153796250Y-108195000D03*
X147446250Y-110735000D03*
%TD*%
D13*
%TO.C,D16*%
X88900000Y-78740000D03*
D14*
X88900000Y-71120000D03*
%TD*%
D10*
%TO.C,SW46*%
X127126250Y-113275000D03*
D11*
X132206250Y-113275000D03*
D10*
X137286250Y-113275000D03*
D12*
X134746250Y-108195000D03*
X128396250Y-110735000D03*
%TD*%
D13*
%TO.C,D29*%
X80010000Y-99060000D03*
D14*
X80010000Y-91440000D03*
%TD*%
D10*
%TO.C,SW34*%
X160463750Y-94225000D03*
D11*
X165543750Y-94225000D03*
D10*
X170623750Y-94225000D03*
D12*
X168083750Y-89145000D03*
X161733750Y-91685000D03*
%TD*%
D13*
%TO.C,D50*%
X217170000Y-118110000D03*
D14*
X217170000Y-110490000D03*
%TD*%
D10*
%TO.C,SW26*%
X265238750Y-75175000D03*
D11*
X270318750Y-75175000D03*
D10*
X275398750Y-75175000D03*
D12*
X272858750Y-70095000D03*
X266508750Y-72635000D03*
%TD*%
D13*
%TO.C,D43*%
X83820000Y-118110000D03*
D14*
X83820000Y-110490000D03*
%TD*%
D10*
%TO.C,SW8*%
X198563750Y-46600000D03*
D11*
X203643750Y-46600000D03*
D10*
X208723750Y-46600000D03*
D12*
X206183750Y-41520000D03*
X199833750Y-44060000D03*
%TD*%
D10*
%TO.C,SW55*%
X48545000Y-132325000D03*
D11*
X53625000Y-132325000D03*
D10*
X58705000Y-132325000D03*
D12*
X56165000Y-127245000D03*
X49815000Y-129785000D03*
%TD*%
D13*
%TO.C,D48*%
X179070000Y-118110000D03*
D14*
X179070000Y-110490000D03*
%TD*%
D13*
%TO.C,D19*%
X146050000Y-78740000D03*
D14*
X146050000Y-71120000D03*
%TD*%
D10*
%TO.C,SW76*%
X327151250Y-151375000D03*
D11*
X332231250Y-151375000D03*
D10*
X337311250Y-151375000D03*
D12*
X334771250Y-146295000D03*
X328421250Y-148835000D03*
%TD*%
D10*
%TO.C,SW2*%
X74738750Y-46600000D03*
D11*
X79818750Y-46600000D03*
D10*
X84898750Y-46600000D03*
D12*
X82358750Y-41520000D03*
X76008750Y-44060000D03*
%TD*%
D13*
%TO.C,D17*%
X107950000Y-78740000D03*
D14*
X107950000Y-71120000D03*
%TD*%
D10*
%TO.C,SW61*%
X174751250Y-132325000D03*
D11*
X179831250Y-132325000D03*
D10*
X184911250Y-132325000D03*
D12*
X182371250Y-127245000D03*
X176021250Y-129785000D03*
%TD*%
D13*
%TO.C,D47*%
X160020000Y-118110000D03*
D14*
X160020000Y-110490000D03*
%TD*%
D13*
%TO.C,D33*%
X156210000Y-99060000D03*
D14*
X156210000Y-91440000D03*
%TD*%
D13*
%TO.C,D31*%
X118110000Y-99060000D03*
D14*
X118110000Y-91440000D03*
%TD*%
D10*
%TO.C,SW37*%
X217613750Y-94225000D03*
D11*
X222693750Y-94225000D03*
D10*
X227773750Y-94225000D03*
D12*
X225233750Y-89145000D03*
X218883750Y-91685000D03*
%TD*%
D15*
%TO.C,U2*%
X386588000Y-40640000D03*
D14*
X384048000Y-40640000D03*
D16*
X381508000Y-40640000D03*
D14*
X378968000Y-40640000D03*
X376428000Y-40640000D03*
X373888000Y-40640000D03*
X371348000Y-40640000D03*
D16*
X368808000Y-40640000D03*
D14*
X366268000Y-40640000D03*
X363728000Y-40640000D03*
X361188000Y-40640000D03*
X358648000Y-40640000D03*
D16*
X356108000Y-40640000D03*
D14*
X353568000Y-40640000D03*
X351028000Y-40640000D03*
X348488000Y-40640000D03*
X345948000Y-40640000D03*
D16*
X343408000Y-40640000D03*
D14*
X340868000Y-40640000D03*
X338328000Y-40640000D03*
X338328000Y-58420000D03*
X340868000Y-58420000D03*
D17*
X343408000Y-58420000D03*
D14*
X345948000Y-58420000D03*
X348488000Y-58420000D03*
X351028000Y-58420000D03*
X353568000Y-58420000D03*
D17*
X356108000Y-58420000D03*
D14*
X358648000Y-58420000D03*
X361188000Y-58420000D03*
X363728000Y-58420000D03*
X366268000Y-58420000D03*
D17*
X368808000Y-58420000D03*
D14*
X371348000Y-58420000D03*
X373888000Y-58420000D03*
X376428000Y-58420000D03*
X378968000Y-58420000D03*
D17*
X381508000Y-58420000D03*
D14*
X384048000Y-58420000D03*
X386588000Y-58420000D03*
%TD*%
D13*
%TO.C,D28*%
X55880000Y-99060000D03*
D14*
X55880000Y-91440000D03*
%TD*%
D13*
%TO.C,D62*%
X208280000Y-137160000D03*
D14*
X208280000Y-129540000D03*
%TD*%
D10*
%TO.C,SW57*%
X98551250Y-132325000D03*
D11*
X103631250Y-132325000D03*
D10*
X108711250Y-132325000D03*
D12*
X106171250Y-127245000D03*
X99821250Y-129785000D03*
%TD*%
D10*
%TO.C,SW45*%
X108076250Y-113275000D03*
D11*
X113156250Y-113275000D03*
D10*
X118236250Y-113275000D03*
D12*
X115696250Y-108195000D03*
X109346250Y-110735000D03*
%TD*%
D10*
%TO.C,SW73*%
X253332500Y-151375000D03*
D11*
X258412500Y-151375000D03*
D10*
X263492500Y-151375000D03*
D12*
X260952500Y-146295000D03*
X254602500Y-148835000D03*
%TD*%
D10*
%TO.C,SW59*%
X136651250Y-132325000D03*
D11*
X141731250Y-132325000D03*
D10*
X146811250Y-132325000D03*
D12*
X144271250Y-127245000D03*
X137921250Y-129785000D03*
%TD*%
D10*
%TO.C,SW32*%
X122363750Y-94225000D03*
D11*
X127443750Y-94225000D03*
D10*
X132523750Y-94225000D03*
D12*
X129983750Y-89145000D03*
X123633750Y-91685000D03*
%TD*%
D10*
%TO.C,SW28*%
X41401250Y-94225000D03*
D11*
X46481250Y-94225000D03*
D10*
X51561250Y-94225000D03*
D12*
X49021250Y-89145000D03*
X42671250Y-91685000D03*
%TD*%
D13*
%TO.C,D54*%
X306070000Y-118110000D03*
D14*
X306070000Y-110490000D03*
%TD*%
D13*
%TO.C,D58*%
X132080000Y-137160000D03*
D14*
X132080000Y-129540000D03*
%TD*%
D13*
%TO.C,D66*%
X302260000Y-135890000D03*
D14*
X302260000Y-128270000D03*
%TD*%
D10*
%TO.C,SW33*%
X141413750Y-94225000D03*
D11*
X146493750Y-94225000D03*
D10*
X151573750Y-94225000D03*
D12*
X149033750Y-89145000D03*
X142683750Y-91685000D03*
%TD*%
D10*
%TO.C,SW23*%
X208088750Y-75175000D03*
D11*
X213168750Y-75175000D03*
D10*
X218248750Y-75175000D03*
D12*
X215708750Y-70095000D03*
X209358750Y-72635000D03*
%TD*%
D13*
%TO.C,D2*%
X89408000Y-48514000D03*
D14*
X89408000Y-40894000D03*
%TD*%
D13*
%TO.C,D70*%
X101600000Y-154940000D03*
D14*
X101600000Y-147320000D03*
%TD*%
D10*
%TO.C,SW71*%
X158082500Y-151375000D03*
D11*
X163162500Y-151375000D03*
D10*
X168242500Y-151375000D03*
D12*
X165702500Y-146295000D03*
X159352500Y-148835000D03*
%TD*%
D10*
%TO.C,SW20*%
X150938750Y-75175000D03*
D11*
X156018750Y-75175000D03*
D10*
X161098750Y-75175000D03*
D12*
X158558750Y-70095000D03*
X152208750Y-72635000D03*
%TD*%
D10*
%TO.C,SW68*%
X39020000Y-151375000D03*
D11*
X44100000Y-151375000D03*
D10*
X49180000Y-151375000D03*
D12*
X46640000Y-146295000D03*
X40290000Y-148835000D03*
%TD*%
D13*
%TO.C,D61*%
X189230000Y-137160000D03*
D14*
X189230000Y-129540000D03*
%TD*%
D10*
%TO.C,SW12*%
X284288750Y-46600000D03*
D11*
X289368750Y-46600000D03*
D10*
X294448750Y-46600000D03*
D12*
X291908750Y-41520000D03*
X285558750Y-44060000D03*
%TD*%
D10*
%TO.C,SW5*%
X131888750Y-46600000D03*
D11*
X136968750Y-46600000D03*
D10*
X142048750Y-46600000D03*
D12*
X139508750Y-41520000D03*
X133158750Y-44060000D03*
%TD*%
D13*
%TO.C,D69*%
X77470000Y-154940000D03*
D14*
X77470000Y-147320000D03*
%TD*%
D13*
%TO.C,D51*%
X236220000Y-118110000D03*
D14*
X236220000Y-110490000D03*
%TD*%
D10*
%TO.C,SW15*%
X55688750Y-75175000D03*
D11*
X60768750Y-75175000D03*
D10*
X65848750Y-75175000D03*
D12*
X63308750Y-70095000D03*
X56958750Y-72635000D03*
%TD*%
D18*
%TO.C,Brd1*%
X337947000Y-78133750D03*
X337947000Y-107597750D03*
X366903000Y-78133750D03*
X366903000Y-107597750D03*
D19*
X343535000Y-78133750D03*
D10*
X346075000Y-78133750D03*
X348615000Y-78133750D03*
X351155000Y-78133750D03*
X353695000Y-78133750D03*
X356235000Y-78133750D03*
X358775000Y-78133750D03*
X361315000Y-78133750D03*
%TD*%
D13*
%TO.C,D45*%
X121920000Y-118110000D03*
D14*
X121920000Y-110490000D03*
%TD*%
D13*
%TO.C,D24*%
X241300000Y-78740000D03*
D14*
X241300000Y-71120000D03*
%TD*%
D10*
%TO.C,SW27*%
X293813750Y-75175000D03*
D11*
X298893750Y-75175000D03*
D10*
X303973750Y-75175000D03*
D12*
X301433750Y-70095000D03*
X295083750Y-72635000D03*
%TD*%
D13*
%TO.C,D67*%
X360680000Y-137160000D03*
D14*
X360680000Y-129540000D03*
%TD*%
D13*
%TO.C,D35*%
X194310000Y-99060000D03*
D14*
X194310000Y-91440000D03*
%TD*%
D10*
%TO.C,SW7*%
X179513750Y-46600000D03*
D11*
X184593750Y-46600000D03*
D10*
X189673750Y-46600000D03*
D12*
X187133750Y-41520000D03*
X180783750Y-44060000D03*
%TD*%
D10*
%TO.C,SW22*%
X189038750Y-75175000D03*
D11*
X194118750Y-75175000D03*
D10*
X199198750Y-75175000D03*
D12*
X196658750Y-70095000D03*
X190308750Y-72635000D03*
%TD*%
D13*
%TO.C,D73*%
X267970000Y-156210000D03*
D14*
X267970000Y-148590000D03*
%TD*%
D10*
%TO.C,SW21*%
X169988750Y-75175000D03*
D11*
X175068750Y-75175000D03*
D10*
X180148750Y-75175000D03*
D12*
X177608750Y-70095000D03*
X171258750Y-72635000D03*
%TD*%
D10*
%TO.C,SW64*%
X231901250Y-132325000D03*
D11*
X236981250Y-132325000D03*
D10*
X242061250Y-132325000D03*
D12*
X239521250Y-127245000D03*
X233171250Y-129785000D03*
%TD*%
D10*
%TO.C,SW43*%
X69976250Y-113275000D03*
D11*
X75056250Y-113275000D03*
D10*
X80136250Y-113275000D03*
D12*
X77596250Y-108195000D03*
X71246250Y-110735000D03*
%TD*%
D10*
%TO.C,SW70*%
X86645000Y-151375000D03*
D11*
X91725000Y-151375000D03*
D10*
X96805000Y-151375000D03*
D12*
X94265000Y-146295000D03*
X87915000Y-148835000D03*
%TD*%
D10*
%TO.C,SW3*%
X93788750Y-46600000D03*
D11*
X98868750Y-46600000D03*
D10*
X103948750Y-46600000D03*
D12*
X101408750Y-41520000D03*
X95058750Y-44060000D03*
%TD*%
D10*
%TO.C,SW66*%
X286670000Y-132325000D03*
D11*
X291750000Y-132325000D03*
D10*
X296830000Y-132325000D03*
D12*
X294290000Y-127245000D03*
X287940000Y-129785000D03*
%TD*%
D10*
%TO.C,SW9*%
X217613750Y-46600000D03*
D11*
X222693750Y-46600000D03*
D10*
X227773750Y-46600000D03*
D12*
X225233750Y-41520000D03*
X218883750Y-44060000D03*
%TD*%
D10*
%TO.C,SW4*%
X112838750Y-46600000D03*
D11*
X117918750Y-46600000D03*
D10*
X122998750Y-46600000D03*
D12*
X120458750Y-41520000D03*
X114108750Y-44060000D03*
%TD*%
D13*
%TO.C,D11*%
X279400000Y-48768000D03*
D14*
X279400000Y-41148000D03*
%TD*%
D10*
%TO.C,SW6*%
X160463750Y-46600000D03*
D11*
X165543750Y-46600000D03*
D10*
X170623750Y-46600000D03*
D12*
X168083750Y-41520000D03*
X161733750Y-44060000D03*
%TD*%
D13*
%TO.C,D13*%
X318008000Y-49530000D03*
D14*
X318008000Y-41910000D03*
%TD*%
D10*
%TO.C,SW48*%
X165226250Y-113275000D03*
D11*
X170306250Y-113275000D03*
D10*
X175386250Y-113275000D03*
D12*
X172846250Y-108195000D03*
X166496250Y-110735000D03*
%TD*%
D13*
%TO.C,D1*%
X51308000Y-48514000D03*
D14*
X51308000Y-40894000D03*
%TD*%
D10*
%TO.C,SW35*%
X179513750Y-94225000D03*
D11*
X184593750Y-94225000D03*
D10*
X189673750Y-94225000D03*
D12*
X187133750Y-89145000D03*
X180783750Y-91685000D03*
%TD*%
D13*
%TO.C,D32*%
X137160000Y-99060000D03*
D14*
X137160000Y-91440000D03*
%TD*%
D13*
%TO.C,D5*%
X146304000Y-48514000D03*
D14*
X146304000Y-40894000D03*
%TD*%
D13*
%TO.C,D40*%
X289560000Y-99060000D03*
D14*
X289560000Y-91440000D03*
%TD*%
D10*
%TO.C,SW13*%
X303338750Y-46600000D03*
D11*
X308418750Y-46600000D03*
D10*
X313498750Y-46600000D03*
D12*
X310958750Y-41520000D03*
X304608750Y-44060000D03*
%TD*%
D10*
%TO.C,SW77*%
X346201250Y-151375000D03*
D11*
X351281250Y-151375000D03*
D10*
X356361250Y-151375000D03*
D12*
X353821250Y-146295000D03*
X347471250Y-148835000D03*
%TD*%
D13*
%TO.C,D57*%
X113030000Y-137160000D03*
D14*
X113030000Y-129540000D03*
%TD*%
D10*
%TO.C,SW74*%
X277145000Y-151375000D03*
D11*
X282225000Y-151375000D03*
D10*
X287305000Y-151375000D03*
D12*
X284765000Y-146295000D03*
X278415000Y-148835000D03*
%TD*%
D10*
%TO.C,SW44*%
X89026250Y-113275000D03*
D11*
X94106250Y-113275000D03*
D10*
X99186250Y-113275000D03*
D12*
X96646250Y-108195000D03*
X90296250Y-110735000D03*
%TD*%
D13*
%TO.C,D27*%
X308610000Y-78740000D03*
D14*
X308610000Y-71120000D03*
%TD*%
D10*
%TO.C,SW18*%
X112838750Y-75175000D03*
D11*
X117918750Y-75175000D03*
D10*
X122998750Y-75175000D03*
D12*
X120458750Y-70095000D03*
X114108750Y-72635000D03*
%TD*%
D10*
%TO.C,SW69*%
X62832500Y-151375000D03*
D11*
X67912500Y-151375000D03*
D10*
X72992500Y-151375000D03*
D12*
X70452500Y-146295000D03*
X64102500Y-148835000D03*
%TD*%
D13*
%TO.C,D52*%
X255270000Y-118110000D03*
D14*
X255270000Y-110490000D03*
%TD*%
D10*
%TO.C,SW60*%
X155701250Y-132325000D03*
D11*
X160781250Y-132325000D03*
D10*
X165861250Y-132325000D03*
D12*
X163321250Y-127245000D03*
X156971250Y-129785000D03*
%TD*%
D10*
%TO.C,SW51*%
X222376250Y-113275000D03*
D11*
X227456250Y-113275000D03*
D10*
X232536250Y-113275000D03*
D12*
X229996250Y-108195000D03*
X223646250Y-110735000D03*
%TD*%
D10*
%TO.C,SW30*%
X84263750Y-94225000D03*
D11*
X89343750Y-94225000D03*
D10*
X94423750Y-94225000D03*
D12*
X91883750Y-89145000D03*
X85533750Y-91685000D03*
%TD*%
D10*
%TO.C,SW54*%
X291432500Y-113275000D03*
D11*
X296512500Y-113275000D03*
D10*
X301592500Y-113275000D03*
D12*
X299052500Y-108195000D03*
X292702500Y-110735000D03*
%TD*%
D13*
%TO.C,D30*%
X99060000Y-99060000D03*
D14*
X99060000Y-91440000D03*
%TD*%
D13*
%TO.C,D49*%
X198120000Y-118110000D03*
D14*
X198120000Y-110490000D03*
%TD*%
D13*
%TO.C,D18*%
X127000000Y-78740000D03*
D14*
X127000000Y-71120000D03*
%TD*%
D13*
%TO.C,D7*%
X194056000Y-48514000D03*
D14*
X194056000Y-40894000D03*
%TD*%
D10*
%TO.C,SW14*%
X36638750Y-75175000D03*
D11*
X41718750Y-75175000D03*
D10*
X46798750Y-75175000D03*
D12*
X44258750Y-70095000D03*
X37908750Y-72635000D03*
%TD*%
D13*
%TO.C,D78*%
X379730000Y-156210000D03*
D14*
X379730000Y-148590000D03*
%TD*%
D10*
%TO.C,SW10*%
X246188750Y-46600000D03*
D11*
X251268750Y-46600000D03*
D10*
X256348750Y-46600000D03*
D12*
X253808750Y-41520000D03*
X247458750Y-44060000D03*
%TD*%
D10*
%TO.C,SW40*%
X274763750Y-94225000D03*
D11*
X279843750Y-94225000D03*
D10*
X284923750Y-94225000D03*
D12*
X282383750Y-89145000D03*
X276033750Y-91685000D03*
%TD*%
D13*
%TO.C,D26*%
X279400000Y-78740000D03*
D14*
X279400000Y-71120000D03*
%TD*%
D13*
%TO.C,D74*%
X292100000Y-156210000D03*
D14*
X292100000Y-148590000D03*
%TD*%
D13*
%TO.C,D76*%
X341630000Y-156210000D03*
D14*
X341630000Y-148590000D03*
%TD*%
D13*
%TO.C,D64*%
X246380000Y-137160000D03*
D14*
X246380000Y-129540000D03*
%TD*%
D13*
%TO.C,D36*%
X213360000Y-99060000D03*
D14*
X213360000Y-91440000D03*
%TD*%
D13*
%TO.C,D55*%
X63500000Y-137160000D03*
D14*
X63500000Y-129540000D03*
%TD*%
D13*
%TO.C,D68*%
X53340000Y-154940000D03*
D14*
X53340000Y-147320000D03*
%TD*%
D10*
%TO.C,SW42*%
X43782500Y-113275000D03*
D11*
X48862500Y-113275000D03*
D10*
X53942500Y-113275000D03*
D12*
X51402500Y-108195000D03*
X45052500Y-110735000D03*
%TD*%
D13*
%TO.C,D34*%
X175260000Y-99060000D03*
D14*
X175260000Y-91440000D03*
%TD*%
D13*
%TO.C,D15*%
X70612000Y-78486000D03*
D14*
X70612000Y-70866000D03*
%TD*%
D13*
%TO.C,D8*%
X212852000Y-48768000D03*
D14*
X212852000Y-41148000D03*
%TD*%
D13*
%TO.C,D12*%
X299212000Y-49530000D03*
D14*
X299212000Y-41910000D03*
%TD*%
D10*
%TO.C,SW53*%
X260476250Y-113275000D03*
D11*
X265556250Y-113275000D03*
D10*
X270636250Y-113275000D03*
D12*
X268096250Y-108195000D03*
X261746250Y-110735000D03*
%TD*%
D10*
%TO.C,SW52*%
X241426250Y-113275000D03*
D11*
X246506250Y-113275000D03*
D10*
X251586250Y-113275000D03*
D12*
X249046250Y-108195000D03*
X242696250Y-110735000D03*
%TD*%
D10*
%TO.C,SW39*%
X255713750Y-94225000D03*
D11*
X260793750Y-94225000D03*
D10*
X265873750Y-94225000D03*
D12*
X263333750Y-89145000D03*
X256983750Y-91685000D03*
%TD*%
D13*
%TO.C,D23*%
X222250000Y-78740000D03*
D14*
X222250000Y-71120000D03*
%TD*%
D13*
%TO.C,D41*%
X313690000Y-99060000D03*
D14*
X313690000Y-91440000D03*
%TD*%
D10*
%TO.C,SW1*%
X36638750Y-46600000D03*
D11*
X41718750Y-46600000D03*
D10*
X46798750Y-46600000D03*
D12*
X44258750Y-41520000D03*
X37908750Y-44060000D03*
%TD*%
D13*
%TO.C,D77*%
X360680000Y-156210000D03*
D14*
X360680000Y-148590000D03*
%TD*%
M02*
