%TF.GenerationSoftware,KiCad,Pcbnew,9.0.2*%
%TF.CreationDate,2025-07-16T18:53:34+05:00*%
%TF.ProjectId,SR-U2764,53522d55-3237-4363-942e-6b696361645f,rev?*%
%TF.SameCoordinates,Original*%
%TF.FileFunction,Copper,L1,Top*%
%TF.FilePolarity,Positive*%
%FSLAX46Y46*%
G04 Gerber Fmt 4.6, Leading zero omitted, Abs format (unit mm)*
G04 Created by KiCad (PCBNEW 9.0.2) date 2025-07-16 18:53:34*
%MOMM*%
%LPD*%
G01*
G04 APERTURE LIST*
G04 Aperture macros list*
%AMRoundRect*
0 Rectangle with rounded corners*
0 $1 Rounding radius*
0 $2 $3 $4 $5 $6 $7 $8 $9 X,Y pos of 4 corners*
0 Add a 4 corners polygon primitive as box body*
4,1,4,$2,$3,$4,$5,$6,$7,$8,$9,$2,$3,0*
0 Add four circle primitives for the rounded corners*
1,1,$1+$1,$2,$3*
1,1,$1+$1,$4,$5*
1,1,$1+$1,$6,$7*
1,1,$1+$1,$8,$9*
0 Add four rect primitives between the rounded corners*
20,1,$1+$1,$2,$3,$4,$5,0*
20,1,$1+$1,$4,$5,$6,$7,0*
20,1,$1+$1,$6,$7,$8,$9,0*
20,1,$1+$1,$8,$9,$2,$3,0*%
%AMFreePoly0*
4,1,37,0.603843,0.796157,0.639018,0.796157,0.711114,0.766294,0.766294,0.711114,0.796157,0.639018,0.796157,0.603843,0.800000,0.600000,0.800000,-0.600000,0.796157,-0.603843,0.796157,-0.639018,0.766294,-0.711114,0.711114,-0.766294,0.639018,-0.796157,0.603843,-0.796157,0.600000,-0.800000,0.000000,-0.800000,0.000000,-0.796148,-0.078414,-0.796148,-0.232228,-0.765552,-0.377117,-0.705537,
-0.507515,-0.618408,-0.618408,-0.507515,-0.705537,-0.377117,-0.765552,-0.232228,-0.796148,-0.078414,-0.796148,0.078414,-0.765552,0.232228,-0.705537,0.377117,-0.618408,0.507515,-0.507515,0.618408,-0.377117,0.705537,-0.232228,0.765552,-0.078414,0.796148,0.000000,0.796148,0.000000,0.800000,0.600000,0.800000,0.603843,0.796157,0.603843,0.796157,$1*%
%AMFreePoly1*
4,1,37,0.000000,0.796148,0.078414,0.796148,0.232228,0.765552,0.377117,0.705537,0.507515,0.618408,0.618408,0.507515,0.705537,0.377117,0.765552,0.232228,0.796148,0.078414,0.796148,-0.078414,0.765552,-0.232228,0.705537,-0.377117,0.618408,-0.507515,0.507515,-0.618408,0.377117,-0.705537,0.232228,-0.765552,0.078414,-0.796148,0.000000,-0.796148,0.000000,-0.800000,-0.600000,-0.800000,
-0.603843,-0.796157,-0.639018,-0.796157,-0.711114,-0.766294,-0.766294,-0.711114,-0.796157,-0.639018,-0.796157,-0.603843,-0.800000,-0.600000,-0.800000,0.600000,-0.796157,0.603843,-0.796157,0.639018,-0.766294,0.711114,-0.711114,0.766294,-0.639018,0.796157,-0.603843,0.796157,-0.600000,0.800000,0.000000,0.800000,0.000000,0.796148,0.000000,0.796148,$1*%
G04 Aperture macros list end*
%TA.AperFunction,ComponentPad*%
%ADD10C,2.200000*%
%TD*%
%TA.AperFunction,ComponentPad*%
%ADD11RoundRect,0.250000X0.550000X-0.550000X0.550000X0.550000X-0.550000X0.550000X-0.550000X-0.550000X0*%
%TD*%
%TA.AperFunction,ComponentPad*%
%ADD12C,1.600000*%
%TD*%
%TA.AperFunction,ComponentPad*%
%ADD13RoundRect,0.200000X-0.600000X0.600000X-0.600000X-0.600000X0.600000X-0.600000X0.600000X0.600000X0*%
%TD*%
%TA.AperFunction,ComponentPad*%
%ADD14FreePoly0,270.000000*%
%TD*%
%TA.AperFunction,ComponentPad*%
%ADD15FreePoly1,270.000000*%
%TD*%
%TA.AperFunction,ComponentPad*%
%ADD16R,1.700000X1.700000*%
%TD*%
%TA.AperFunction,ComponentPad*%
%ADD17C,1.700000*%
%TD*%
%TA.AperFunction,ViaPad*%
%ADD18C,0.600000*%
%TD*%
%TA.AperFunction,Conductor*%
%ADD19C,0.200000*%
%TD*%
G04 APERTURE END LIST*
D10*
%TO.P,SW11,1,1*%
%TO.N,COL1*%
X272858750Y-41520000D03*
%TO.P,SW11,2,2*%
%TO.N,Net-(D11-A)*%
X266508750Y-44060000D03*
%TD*%
D11*
%TO.P,D72,1,K*%
%TO.N,ROW8*%
X243840000Y-156210000D03*
D12*
%TO.P,D72,2,A*%
%TO.N,Net-(D72-A)*%
X243840000Y-148590000D03*
%TD*%
D11*
%TO.P,D46,1,K*%
%TO.N,ROW5*%
X140970000Y-118110000D03*
D12*
%TO.P,D46,2,A*%
%TO.N,Net-(D46-A)*%
X140970000Y-110490000D03*
%TD*%
D11*
%TO.P,D10,1,K*%
%TO.N,ROW1*%
X260604000Y-49022000D03*
D12*
%TO.P,D10,2,A*%
%TO.N,Net-(D10-A)*%
X260604000Y-41402000D03*
%TD*%
D10*
%TO.P,SW62,1,1*%
%TO.N,COL2*%
X201421250Y-127245000D03*
%TO.P,SW62,2,2*%
%TO.N,Net-(D62-A)*%
X195071250Y-129785000D03*
%TD*%
%TO.P,SW56,1,1*%
%TO.N,COL6*%
X87121250Y-127245000D03*
%TO.P,SW56,2,2*%
%TO.N,Net-(D56-A)*%
X80771250Y-129785000D03*
%TD*%
%TO.P,SW19,1,1*%
%TO.N,COL9*%
X139508750Y-70095000D03*
%TO.P,SW19,2,2*%
%TO.N,Net-(D19-A)*%
X133158750Y-72635000D03*
%TD*%
D11*
%TO.P,D75,1,K*%
%TO.N,ROW8*%
X316230000Y-156210000D03*
D12*
%TO.P,D75,2,A*%
%TO.N,Net-(D75-A)*%
X316230000Y-148590000D03*
%TD*%
D10*
%TO.P,SW31,1,1*%
%TO.N,COL1*%
X110933750Y-89145000D03*
%TO.P,SW31,2,2*%
%TO.N,Net-(D31-A)*%
X104583750Y-91685000D03*
%TD*%
%TO.P,SW58,1,1*%
%TO.N,COL8*%
X125221250Y-127245000D03*
%TO.P,SW58,2,2*%
%TO.N,Net-(D58-A)*%
X118871250Y-129785000D03*
%TD*%
D11*
%TO.P,D37,1,K*%
%TO.N,ROW4*%
X232410000Y-99060000D03*
D12*
%TO.P,D37,2,A*%
%TO.N,Net-(D37-A)*%
X232410000Y-91440000D03*
%TD*%
D11*
%TO.P,D22,1,K*%
%TO.N,ROW3*%
X203200000Y-78740000D03*
D12*
%TO.P,D22,2,A*%
%TO.N,Net-(D22-A)*%
X203200000Y-71120000D03*
%TD*%
D11*
%TO.P,D39,1,K*%
%TO.N,ROW4*%
X270510000Y-99060000D03*
D12*
%TO.P,D39,2,A*%
%TO.N,Net-(D39-A)*%
X270510000Y-91440000D03*
%TD*%
D11*
%TO.P,D14,1,K*%
%TO.N,ROW2*%
X51308000Y-78486000D03*
D12*
%TO.P,D14,2,A*%
%TO.N,Net-(D14-A)*%
X51308000Y-70866000D03*
%TD*%
D10*
%TO.P,SW49,1,1*%
%TO.N,COL9*%
X191896250Y-108195000D03*
%TO.P,SW49,2,2*%
%TO.N,Net-(D49-A)*%
X185546250Y-110735000D03*
%TD*%
D11*
%TO.P,D65,1,K*%
%TO.N,ROW7*%
X265430000Y-137160000D03*
D12*
%TO.P,D65,2,A*%
%TO.N,Net-(D65-A)*%
X265430000Y-129540000D03*
%TD*%
D10*
%TO.P,SW72,1,1*%
%TO.N,COL2*%
X237140000Y-146295000D03*
%TO.P,SW72,2,2*%
%TO.N,Net-(D72-A)*%
X230790000Y-148835000D03*
%TD*%
D11*
%TO.P,D56,1,K*%
%TO.N,ROW6*%
X93980000Y-137160000D03*
D12*
%TO.P,D56,2,A*%
%TO.N,Net-(D56-A)*%
X93980000Y-129540000D03*
%TD*%
D10*
%TO.P,SW38,1,1*%
%TO.N,COL8*%
X244283750Y-89145000D03*
%TO.P,SW38,2,2*%
%TO.N,Net-(D38-A)*%
X237933750Y-91685000D03*
%TD*%
%TO.P,SW17,1,1*%
%TO.N,COL7*%
X101408750Y-70095000D03*
%TO.P,SW17,2,2*%
%TO.N,Net-(D17-A)*%
X95058750Y-72635000D03*
%TD*%
%TO.P,SW67,1,1*%
%TO.N,COL7*%
X353821250Y-127245000D03*
%TO.P,SW67,2,2*%
%TO.N,Net-(D67-A)*%
X347471250Y-129785000D03*
%TD*%
D11*
%TO.P,D20,1,K*%
%TO.N,ROW2*%
X165100000Y-78740000D03*
D12*
%TO.P,D20,2,A*%
%TO.N,Net-(D20-A)*%
X165100000Y-71120000D03*
%TD*%
D10*
%TO.P,SW63,1,1*%
%TO.N,COL3*%
X220471250Y-127245000D03*
%TO.P,SW63,2,2*%
%TO.N,Net-(D63-A)*%
X214121250Y-129785000D03*
%TD*%
D11*
%TO.P,D9,1,K*%
%TO.N,ROW1*%
X232664000Y-49022000D03*
D12*
%TO.P,D9,2,A*%
%TO.N,Net-(D9-A)*%
X232664000Y-41402000D03*
%TD*%
D11*
%TO.P,D59,1,K*%
%TO.N,ROW6*%
X151130000Y-137160000D03*
D12*
%TO.P,D59,2,A*%
%TO.N,Net-(D59-A)*%
X151130000Y-129540000D03*
%TD*%
D10*
%TO.P,SW65,1,1*%
%TO.N,COL5*%
X258571250Y-127245000D03*
%TO.P,SW65,2,2*%
%TO.N,Net-(D65-A)*%
X252221250Y-129785000D03*
%TD*%
%TO.P,SW50,1,1*%
%TO.N,COL10*%
X210946250Y-108195000D03*
%TO.P,SW50,2,2*%
%TO.N,Net-(D50-A)*%
X204596250Y-110735000D03*
%TD*%
%TO.P,SW29,1,1*%
%TO.N,COL9*%
X72833750Y-89145000D03*
%TO.P,SW29,2,2*%
%TO.N,Net-(D29-A)*%
X66483750Y-91685000D03*
%TD*%
D11*
%TO.P,D6,1,K*%
%TO.N,ROW1*%
X175260000Y-48514000D03*
D12*
%TO.P,D6,2,A*%
%TO.N,Net-(D6-A)*%
X175260000Y-40894000D03*
%TD*%
D10*
%TO.P,SW75,1,1*%
%TO.N,COL5*%
X308577500Y-146295000D03*
%TO.P,SW75,2,2*%
%TO.N,Net-(D75-A)*%
X302227500Y-148835000D03*
%TD*%
D11*
%TO.P,D38,1,K*%
%TO.N,ROW4*%
X251460000Y-99060000D03*
D12*
%TO.P,D38,2,A*%
%TO.N,Net-(D38-A)*%
X251460000Y-91440000D03*
%TD*%
D11*
%TO.P,D4,1,K*%
%TO.N,ROW1*%
X127508000Y-48514000D03*
D12*
%TO.P,D4,2,A*%
%TO.N,Net-(D4-A)*%
X127508000Y-40894000D03*
%TD*%
D11*
%TO.P,D25,1,K*%
%TO.N,ROW3*%
X260350000Y-78740000D03*
D12*
%TO.P,D25,2,A*%
%TO.N,Net-(D25-A)*%
X260350000Y-71120000D03*
%TD*%
D11*
%TO.P,D3,1,K*%
%TO.N,ROW1*%
X108204000Y-48514000D03*
D12*
%TO.P,D3,2,A*%
%TO.N,Net-(D3-A)*%
X108204000Y-40894000D03*
%TD*%
D11*
%TO.P,D21,1,K*%
%TO.N,ROW3*%
X184150000Y-78740000D03*
D12*
%TO.P,D21,2,A*%
%TO.N,Net-(D21-A)*%
X184150000Y-71120000D03*
%TD*%
D11*
%TO.P,D71,1,K*%
%TO.N,ROW8*%
X172720000Y-156210000D03*
D12*
%TO.P,D71,2,A*%
%TO.N,Net-(D71-A)*%
X172720000Y-148590000D03*
%TD*%
D10*
%TO.P,SW24,1,1*%
%TO.N,COL4*%
X234758750Y-70095000D03*
%TO.P,SW24,2,2*%
%TO.N,Net-(D24-A)*%
X228408750Y-72635000D03*
%TD*%
%TO.P,SW41,1,1*%
%TO.N,COL1*%
X306196250Y-89145000D03*
%TO.P,SW41,2,2*%
%TO.N,Net-(D41-A)*%
X299846250Y-91685000D03*
%TD*%
D11*
%TO.P,D60,1,K*%
%TO.N,ROW6*%
X170180000Y-137160000D03*
D12*
%TO.P,D60,2,A*%
%TO.N,Net-(D60-A)*%
X170180000Y-129540000D03*
%TD*%
D10*
%TO.P,SW25,1,1*%
%TO.N,COL5*%
X253808750Y-70095000D03*
%TO.P,SW25,2,2*%
%TO.N,Net-(D25-A)*%
X247458750Y-72635000D03*
%TD*%
D11*
%TO.P,D44,1,K*%
%TO.N,ROW5*%
X102870000Y-118110000D03*
D12*
%TO.P,D44,2,A*%
%TO.N,Net-(D44-A)*%
X102870000Y-110490000D03*
%TD*%
D11*
%TO.P,D53,1,K*%
%TO.N,ROW6*%
X274320000Y-118110000D03*
D12*
%TO.P,D53,2,A*%
%TO.N,Net-(D53-A)*%
X274320000Y-110490000D03*
%TD*%
D11*
%TO.P,D63,1,K*%
%TO.N,ROW7*%
X227330000Y-137160000D03*
D12*
%TO.P,D63,2,A*%
%TO.N,Net-(D63-A)*%
X227330000Y-129540000D03*
%TD*%
D10*
%TO.P,SW78,1,1*%
%TO.N,COL8*%
X372871250Y-146295000D03*
%TO.P,SW78,2,2*%
%TO.N,Net-(D78-A)*%
X366521250Y-148835000D03*
%TD*%
%TO.P,SW36,1,1*%
%TO.N,COL6*%
X206183750Y-89145000D03*
%TO.P,SW36,2,2*%
%TO.N,Net-(D36-A)*%
X199833750Y-91685000D03*
%TD*%
%TO.P,SW16,1,1*%
%TO.N,COL6*%
X82358750Y-70095000D03*
%TO.P,SW16,2,2*%
%TO.N,Net-(D16-A)*%
X76008750Y-72635000D03*
%TD*%
D11*
%TO.P,D42,1,K*%
%TO.N,ROW5*%
X58420000Y-118110000D03*
D12*
%TO.P,D42,2,A*%
%TO.N,Net-(D42-A)*%
X58420000Y-110490000D03*
%TD*%
D10*
%TO.P,SW47,1,1*%
%TO.N,COL7*%
X153796250Y-108195000D03*
%TO.P,SW47,2,2*%
%TO.N,Net-(D47-A)*%
X147446250Y-110735000D03*
%TD*%
D11*
%TO.P,D16,1,K*%
%TO.N,ROW2*%
X88900000Y-78740000D03*
D12*
%TO.P,D16,2,A*%
%TO.N,Net-(D16-A)*%
X88900000Y-71120000D03*
%TD*%
D10*
%TO.P,SW46,1,1*%
%TO.N,COL6*%
X134746250Y-108195000D03*
%TO.P,SW46,2,2*%
%TO.N,Net-(D46-A)*%
X128396250Y-110735000D03*
%TD*%
D11*
%TO.P,D29,1,K*%
%TO.N,ROW3*%
X80010000Y-99060000D03*
D12*
%TO.P,D29,2,A*%
%TO.N,Net-(D29-A)*%
X80010000Y-91440000D03*
%TD*%
D10*
%TO.P,SW34,1,1*%
%TO.N,COL4*%
X168083750Y-89145000D03*
%TO.P,SW34,2,2*%
%TO.N,Net-(D34-A)*%
X161733750Y-91685000D03*
%TD*%
D11*
%TO.P,D50,1,K*%
%TO.N,ROW5*%
X217170000Y-118110000D03*
D12*
%TO.P,D50,2,A*%
%TO.N,Net-(D50-A)*%
X217170000Y-110490000D03*
%TD*%
D10*
%TO.P,SW26,1,1*%
%TO.N,COL6*%
X272858750Y-70095000D03*
%TO.P,SW26,2,2*%
%TO.N,Net-(D26-A)*%
X266508750Y-72635000D03*
%TD*%
D11*
%TO.P,D43,1,K*%
%TO.N,ROW5*%
X83820000Y-118110000D03*
D12*
%TO.P,D43,2,A*%
%TO.N,Net-(D43-A)*%
X83820000Y-110490000D03*
%TD*%
D10*
%TO.P,SW8,1,1*%
%TO.N,COL8*%
X206183750Y-41520000D03*
%TO.P,SW8,2,2*%
%TO.N,Net-(D8-A)*%
X199833750Y-44060000D03*
%TD*%
%TO.P,SW55,1,1*%
%TO.N,COL5*%
X56165000Y-127245000D03*
%TO.P,SW55,2,2*%
%TO.N,Net-(D55-A)*%
X49815000Y-129785000D03*
%TD*%
D11*
%TO.P,D48,1,K*%
%TO.N,ROW5*%
X179070000Y-118110000D03*
D12*
%TO.P,D48,2,A*%
%TO.N,Net-(D48-A)*%
X179070000Y-110490000D03*
%TD*%
D11*
%TO.P,D19,1,K*%
%TO.N,ROW2*%
X146050000Y-78740000D03*
D12*
%TO.P,D19,2,A*%
%TO.N,Net-(D19-A)*%
X146050000Y-71120000D03*
%TD*%
D10*
%TO.P,SW76,1,1*%
%TO.N,COL6*%
X334771250Y-146295000D03*
%TO.P,SW76,2,2*%
%TO.N,Net-(D76-A)*%
X328421250Y-148835000D03*
%TD*%
%TO.P,SW2,1,1*%
%TO.N,COL2*%
X82358750Y-41520000D03*
%TO.P,SW2,2,2*%
%TO.N,Net-(D2-A)*%
X76008750Y-44060000D03*
%TD*%
D11*
%TO.P,D17,1,K*%
%TO.N,ROW2*%
X107950000Y-78740000D03*
D12*
%TO.P,D17,2,A*%
%TO.N,Net-(D17-A)*%
X107950000Y-71120000D03*
%TD*%
D10*
%TO.P,SW61,1,1*%
%TO.N,COL1*%
X182371250Y-127245000D03*
%TO.P,SW61,2,2*%
%TO.N,Net-(D61-A)*%
X176021250Y-129785000D03*
%TD*%
D11*
%TO.P,D47,1,K*%
%TO.N,ROW5*%
X160020000Y-118110000D03*
D12*
%TO.P,D47,2,A*%
%TO.N,Net-(D47-A)*%
X160020000Y-110490000D03*
%TD*%
D11*
%TO.P,D33,1,K*%
%TO.N,ROW4*%
X156210000Y-99060000D03*
D12*
%TO.P,D33,2,A*%
%TO.N,Net-(D33-A)*%
X156210000Y-91440000D03*
%TD*%
D11*
%TO.P,D31,1,K*%
%TO.N,ROW4*%
X118110000Y-99060000D03*
D12*
%TO.P,D31,2,A*%
%TO.N,Net-(D31-A)*%
X118110000Y-91440000D03*
%TD*%
D10*
%TO.P,SW37,1,1*%
%TO.N,COL7*%
X225233750Y-89145000D03*
%TO.P,SW37,2,2*%
%TO.N,Net-(D37-A)*%
X218883750Y-91685000D03*
%TD*%
D13*
%TO.P,U2,1,GPIO0*%
%TO.N,ROW1*%
X386588000Y-40640000D03*
D12*
%TO.P,U2,2,GPIO1*%
%TO.N,ROW2*%
X384048000Y-40640000D03*
D14*
%TO.P,U2,3,GND*%
%TO.N,unconnected-(U2-GND-Pad3)*%
X381508000Y-40640000D03*
D12*
%TO.P,U2,4,GPIO2*%
%TO.N,ROW3*%
X378968000Y-40640000D03*
%TO.P,U2,5,GPIO3*%
%TO.N,ROW4*%
X376428000Y-40640000D03*
%TO.P,U2,6,GPIO4*%
%TO.N,ROW5*%
X373888000Y-40640000D03*
%TO.P,U2,7,GPIO5*%
%TO.N,ROW6*%
X371348000Y-40640000D03*
D14*
%TO.P,U2,8,GND*%
%TO.N,unconnected-(U2-GND-Pad8)*%
X368808000Y-40640000D03*
D12*
%TO.P,U2,9,GPIO6*%
%TO.N,ROW7*%
X366268000Y-40640000D03*
%TO.P,U2,10,GPIO7*%
%TO.N,ROW8*%
X363728000Y-40640000D03*
%TO.P,U2,11,GPIO8*%
%TO.N,COL10*%
X361188000Y-40640000D03*
%TO.P,U2,12,GPIO9*%
%TO.N,COL9*%
X358648000Y-40640000D03*
D14*
%TO.P,U2,13,GND*%
%TO.N,unconnected-(U2-GND-Pad13)*%
X356108000Y-40640000D03*
D12*
%TO.P,U2,14,GPIO10*%
%TO.N,COL8*%
X353568000Y-40640000D03*
%TO.P,U2,15,GPIO11*%
%TO.N,COL7*%
X351028000Y-40640000D03*
%TO.P,U2,16,GPIO12*%
%TO.N,COL6*%
X348488000Y-40640000D03*
%TO.P,U2,17,GPIO13*%
%TO.N,COL5*%
X345948000Y-40640000D03*
D14*
%TO.P,U2,18,GND*%
%TO.N,unconnected-(U2-GND-Pad18)*%
X343408000Y-40640000D03*
D12*
%TO.P,U2,19,GPIO14*%
%TO.N,COL4*%
X340868000Y-40640000D03*
%TO.P,U2,20,GPIO15*%
%TO.N,COL3*%
X338328000Y-40640000D03*
%TO.P,U2,21,GPIO16*%
%TO.N,COL2*%
X338328000Y-58420000D03*
%TO.P,U2,22,GPIO17*%
%TO.N,COL1*%
X340868000Y-58420000D03*
D15*
%TO.P,U2,23,GND*%
%TO.N,Net-(Brd1-GND)*%
X343408000Y-58420000D03*
D12*
%TO.P,U2,24,GPIO18*%
%TO.N,Net-(Brd1-SDA)*%
X345948000Y-58420000D03*
%TO.P,U2,25,GPIO19*%
%TO.N,Net-(Brd1-SCL)*%
X348488000Y-58420000D03*
%TO.P,U2,26,GPIO20*%
%TO.N,unconnected-(U2-GPIO20-Pad26)*%
X351028000Y-58420000D03*
%TO.P,U2,27,GPIO21*%
%TO.N,unconnected-(U2-GPIO21-Pad27)*%
X353568000Y-58420000D03*
D15*
%TO.P,U2,28,GND*%
%TO.N,unconnected-(U2-GND-Pad28)*%
X356108000Y-58420000D03*
D12*
%TO.P,U2,29,GPIO22*%
%TO.N,unconnected-(U2-GPIO22-Pad29)*%
X358648000Y-58420000D03*
%TO.P,U2,30,RUN*%
%TO.N,unconnected-(U2-RUN-Pad30)*%
X361188000Y-58420000D03*
%TO.P,U2,31,GPIO26_ADC0*%
%TO.N,unconnected-(U2-GPIO26_ADC0-Pad31)*%
X363728000Y-58420000D03*
%TO.P,U2,32,GPIO27_ADC1*%
%TO.N,unconnected-(U2-GPIO27_ADC1-Pad32)*%
X366268000Y-58420000D03*
D15*
%TO.P,U2,33,AGND*%
%TO.N,unconnected-(U2-AGND-Pad33)*%
X368808000Y-58420000D03*
D12*
%TO.P,U2,34,GPIO28_ADC2*%
%TO.N,unconnected-(U2-GPIO28_ADC2-Pad34)*%
X371348000Y-58420000D03*
%TO.P,U2,35,ADC_VREF*%
%TO.N,unconnected-(U2-ADC_VREF-Pad35)*%
X373888000Y-58420000D03*
%TO.P,U2,36,3V3*%
%TO.N,Net-(Brd1-VCC)*%
X376428000Y-58420000D03*
%TO.P,U2,37,3V3_EN*%
%TO.N,unconnected-(U2-3V3_EN-Pad37)*%
X378968000Y-58420000D03*
D15*
%TO.P,U2,38,GND*%
%TO.N,unconnected-(U2-GND-Pad38)*%
X381508000Y-58420000D03*
D12*
%TO.P,U2,39,VSYS*%
%TO.N,unconnected-(U2-VSYS-Pad39)*%
X384048000Y-58420000D03*
%TO.P,U2,40,VBUS*%
%TO.N,unconnected-(U2-VBUS-Pad40)*%
X386588000Y-58420000D03*
%TD*%
D11*
%TO.P,D28,1,K*%
%TO.N,ROW3*%
X55880000Y-99060000D03*
D12*
%TO.P,D28,2,A*%
%TO.N,Net-(D28-A)*%
X55880000Y-91440000D03*
%TD*%
D11*
%TO.P,D62,1,K*%
%TO.N,ROW7*%
X208280000Y-137160000D03*
D12*
%TO.P,D62,2,A*%
%TO.N,Net-(D62-A)*%
X208280000Y-129540000D03*
%TD*%
D10*
%TO.P,SW57,1,1*%
%TO.N,COL7*%
X106171250Y-127245000D03*
%TO.P,SW57,2,2*%
%TO.N,Net-(D57-A)*%
X99821250Y-129785000D03*
%TD*%
%TO.P,SW45,1,1*%
%TO.N,COL5*%
X115696250Y-108195000D03*
%TO.P,SW45,2,2*%
%TO.N,Net-(D45-A)*%
X109346250Y-110735000D03*
%TD*%
%TO.P,SW73,1,1*%
%TO.N,COL3*%
X260952500Y-146295000D03*
%TO.P,SW73,2,2*%
%TO.N,Net-(D73-A)*%
X254602500Y-148835000D03*
%TD*%
%TO.P,SW59,1,1*%
%TO.N,COL9*%
X144271250Y-127245000D03*
%TO.P,SW59,2,2*%
%TO.N,Net-(D59-A)*%
X137921250Y-129785000D03*
%TD*%
%TO.P,SW32,1,1*%
%TO.N,COL2*%
X129983750Y-89145000D03*
%TO.P,SW32,2,2*%
%TO.N,Net-(D32-A)*%
X123633750Y-91685000D03*
%TD*%
%TO.P,SW28,1,1*%
%TO.N,COL8*%
X49021250Y-89145000D03*
%TO.P,SW28,2,2*%
%TO.N,Net-(D28-A)*%
X42671250Y-91685000D03*
%TD*%
D11*
%TO.P,D54,1,K*%
%TO.N,ROW6*%
X306070000Y-118110000D03*
D12*
%TO.P,D54,2,A*%
%TO.N,Net-(D54-A)*%
X306070000Y-110490000D03*
%TD*%
D11*
%TO.P,D58,1,K*%
%TO.N,ROW6*%
X132080000Y-137160000D03*
D12*
%TO.P,D58,2,A*%
%TO.N,Net-(D58-A)*%
X132080000Y-129540000D03*
%TD*%
D11*
%TO.P,D66,1,K*%
%TO.N,ROW7*%
X302260000Y-135890000D03*
D12*
%TO.P,D66,2,A*%
%TO.N,Net-(D66-A)*%
X302260000Y-128270000D03*
%TD*%
D10*
%TO.P,SW33,1,1*%
%TO.N,COL3*%
X149033750Y-89145000D03*
%TO.P,SW33,2,2*%
%TO.N,Net-(D33-A)*%
X142683750Y-91685000D03*
%TD*%
%TO.P,SW23,1,1*%
%TO.N,COL3*%
X215708750Y-70095000D03*
%TO.P,SW23,2,2*%
%TO.N,Net-(D23-A)*%
X209358750Y-72635000D03*
%TD*%
D11*
%TO.P,D2,1,K*%
%TO.N,ROW1*%
X89408000Y-48514000D03*
D12*
%TO.P,D2,2,A*%
%TO.N,Net-(D2-A)*%
X89408000Y-40894000D03*
%TD*%
D11*
%TO.P,D70,1,K*%
%TO.N,ROW7*%
X101600000Y-154940000D03*
D12*
%TO.P,D70,2,A*%
%TO.N,Net-(D70-A)*%
X101600000Y-147320000D03*
%TD*%
D10*
%TO.P,SW71,1,1*%
%TO.N,COL1*%
X165702500Y-146295000D03*
%TO.P,SW71,2,2*%
%TO.N,Net-(D71-A)*%
X159352500Y-148835000D03*
%TD*%
%TO.P,SW20,1,1*%
%TO.N,COL10*%
X158558750Y-70095000D03*
%TO.P,SW20,2,2*%
%TO.N,Net-(D20-A)*%
X152208750Y-72635000D03*
%TD*%
%TO.P,SW68,1,1*%
%TO.N,COL8*%
X46640000Y-146295000D03*
%TO.P,SW68,2,2*%
%TO.N,Net-(D68-A)*%
X40290000Y-148835000D03*
%TD*%
D11*
%TO.P,D61,1,K*%
%TO.N,ROW7*%
X189230000Y-137160000D03*
D12*
%TO.P,D61,2,A*%
%TO.N,Net-(D61-A)*%
X189230000Y-129540000D03*
%TD*%
D10*
%TO.P,SW12,1,1*%
%TO.N,COL2*%
X291908750Y-41520000D03*
%TO.P,SW12,2,2*%
%TO.N,Net-(D12-A)*%
X285558750Y-44060000D03*
%TD*%
%TO.P,SW5,1,1*%
%TO.N,COL5*%
X139508750Y-41520000D03*
%TO.P,SW5,2,2*%
%TO.N,Net-(D5-A)*%
X133158750Y-44060000D03*
%TD*%
D11*
%TO.P,D69,1,K*%
%TO.N,ROW7*%
X77470000Y-154940000D03*
D12*
%TO.P,D69,2,A*%
%TO.N,Net-(D69-A)*%
X77470000Y-147320000D03*
%TD*%
D11*
%TO.P,D51,1,K*%
%TO.N,ROW6*%
X236220000Y-118110000D03*
D12*
%TO.P,D51,2,A*%
%TO.N,Net-(D51-A)*%
X236220000Y-110490000D03*
%TD*%
D10*
%TO.P,SW15,1,1*%
%TO.N,COL5*%
X63308750Y-70095000D03*
%TO.P,SW15,2,2*%
%TO.N,Net-(D15-A)*%
X56958750Y-72635000D03*
%TD*%
D16*
%TO.P,Brd1,1,GND*%
%TO.N,Net-(Brd1-GND)*%
X343535000Y-78133750D03*
D17*
%TO.P,Brd1,2,VCC*%
%TO.N,Net-(Brd1-VCC)*%
X346075000Y-78133750D03*
%TO.P,Brd1,3,SCL*%
%TO.N,Net-(Brd1-SCL)*%
X348615000Y-78133750D03*
%TO.P,Brd1,4,SDA*%
%TO.N,Net-(Brd1-SDA)*%
X351155000Y-78133750D03*
%TO.P,Brd1,5*%
%TO.N,N/C*%
X353695000Y-78133750D03*
%TO.P,Brd1,6*%
X356235000Y-78133750D03*
%TO.P,Brd1,7*%
X358775000Y-78133750D03*
%TO.P,Brd1,8*%
X361315000Y-78133750D03*
%TD*%
D11*
%TO.P,D45,1,K*%
%TO.N,ROW5*%
X121920000Y-118110000D03*
D12*
%TO.P,D45,2,A*%
%TO.N,Net-(D45-A)*%
X121920000Y-110490000D03*
%TD*%
D11*
%TO.P,D24,1,K*%
%TO.N,ROW3*%
X241300000Y-78740000D03*
D12*
%TO.P,D24,2,A*%
%TO.N,Net-(D24-A)*%
X241300000Y-71120000D03*
%TD*%
D10*
%TO.P,SW27,1,1*%
%TO.N,COL7*%
X301433750Y-70095000D03*
%TO.P,SW27,2,2*%
%TO.N,Net-(D27-A)*%
X295083750Y-72635000D03*
%TD*%
D11*
%TO.P,D67,1,K*%
%TO.N,ROW7*%
X360680000Y-137160000D03*
D12*
%TO.P,D67,2,A*%
%TO.N,Net-(D67-A)*%
X360680000Y-129540000D03*
%TD*%
D11*
%TO.P,D35,1,K*%
%TO.N,ROW4*%
X194310000Y-99060000D03*
D12*
%TO.P,D35,2,A*%
%TO.N,Net-(D35-A)*%
X194310000Y-91440000D03*
%TD*%
D10*
%TO.P,SW7,1,1*%
%TO.N,COL7*%
X187133750Y-41520000D03*
%TO.P,SW7,2,2*%
%TO.N,Net-(D7-A)*%
X180783750Y-44060000D03*
%TD*%
%TO.P,SW22,1,1*%
%TO.N,COL2*%
X196658750Y-70095000D03*
%TO.P,SW22,2,2*%
%TO.N,Net-(D22-A)*%
X190308750Y-72635000D03*
%TD*%
D11*
%TO.P,D73,1,K*%
%TO.N,ROW8*%
X267970000Y-156210000D03*
D12*
%TO.P,D73,2,A*%
%TO.N,Net-(D73-A)*%
X267970000Y-148590000D03*
%TD*%
D10*
%TO.P,SW21,1,1*%
%TO.N,COL1*%
X177608750Y-70095000D03*
%TO.P,SW21,2,2*%
%TO.N,Net-(D21-A)*%
X171258750Y-72635000D03*
%TD*%
%TO.P,SW64,1,1*%
%TO.N,COL4*%
X239521250Y-127245000D03*
%TO.P,SW64,2,2*%
%TO.N,Net-(D64-A)*%
X233171250Y-129785000D03*
%TD*%
%TO.P,SW43,1,1*%
%TO.N,COL3*%
X77596250Y-108195000D03*
%TO.P,SW43,2,2*%
%TO.N,Net-(D43-A)*%
X71246250Y-110735000D03*
%TD*%
%TO.P,SW70,1,1*%
%TO.N,COL10*%
X94265000Y-146295000D03*
%TO.P,SW70,2,2*%
%TO.N,Net-(D70-A)*%
X87915000Y-148835000D03*
%TD*%
%TO.P,SW3,1,1*%
%TO.N,COL3*%
X101408750Y-41520000D03*
%TO.P,SW3,2,2*%
%TO.N,Net-(D3-A)*%
X95058750Y-44060000D03*
%TD*%
%TO.P,SW66,1,1*%
%TO.N,COL6*%
X294290000Y-127245000D03*
%TO.P,SW66,2,2*%
%TO.N,Net-(D66-A)*%
X287940000Y-129785000D03*
%TD*%
%TO.P,SW9,1,1*%
%TO.N,COL9*%
X225233750Y-41520000D03*
%TO.P,SW9,2,2*%
%TO.N,Net-(D9-A)*%
X218883750Y-44060000D03*
%TD*%
%TO.P,SW4,1,1*%
%TO.N,COL4*%
X120458750Y-41520000D03*
%TO.P,SW4,2,2*%
%TO.N,Net-(D4-A)*%
X114108750Y-44060000D03*
%TD*%
D11*
%TO.P,D11,1,K*%
%TO.N,ROW2*%
X279400000Y-48768000D03*
D12*
%TO.P,D11,2,A*%
%TO.N,Net-(D11-A)*%
X279400000Y-41148000D03*
%TD*%
D10*
%TO.P,SW6,1,1*%
%TO.N,COL6*%
X168083750Y-41520000D03*
%TO.P,SW6,2,2*%
%TO.N,Net-(D6-A)*%
X161733750Y-44060000D03*
%TD*%
D11*
%TO.P,D13,1,K*%
%TO.N,ROW2*%
X318008000Y-49530000D03*
D12*
%TO.P,D13,2,A*%
%TO.N,Net-(D13-A)*%
X318008000Y-41910000D03*
%TD*%
D10*
%TO.P,SW48,1,1*%
%TO.N,COL8*%
X172846250Y-108195000D03*
%TO.P,SW48,2,2*%
%TO.N,Net-(D48-A)*%
X166496250Y-110735000D03*
%TD*%
D11*
%TO.P,D1,1,K*%
%TO.N,ROW1*%
X51308000Y-48514000D03*
D12*
%TO.P,D1,2,A*%
%TO.N,Net-(D1-A)*%
X51308000Y-40894000D03*
%TD*%
D10*
%TO.P,SW35,1,1*%
%TO.N,COL5*%
X187133750Y-89145000D03*
%TO.P,SW35,2,2*%
%TO.N,Net-(D35-A)*%
X180783750Y-91685000D03*
%TD*%
D11*
%TO.P,D32,1,K*%
%TO.N,ROW4*%
X137160000Y-99060000D03*
D12*
%TO.P,D32,2,A*%
%TO.N,Net-(D32-A)*%
X137160000Y-91440000D03*
%TD*%
D11*
%TO.P,D5,1,K*%
%TO.N,ROW1*%
X146304000Y-48514000D03*
D12*
%TO.P,D5,2,A*%
%TO.N,Net-(D5-A)*%
X146304000Y-40894000D03*
%TD*%
D11*
%TO.P,D40,1,K*%
%TO.N,ROW4*%
X289560000Y-99060000D03*
D12*
%TO.P,D40,2,A*%
%TO.N,Net-(D40-A)*%
X289560000Y-91440000D03*
%TD*%
D10*
%TO.P,SW13,1,1*%
%TO.N,COL3*%
X310958750Y-41520000D03*
%TO.P,SW13,2,2*%
%TO.N,Net-(D13-A)*%
X304608750Y-44060000D03*
%TD*%
%TO.P,SW77,1,1*%
%TO.N,COL7*%
X353821250Y-146295000D03*
%TO.P,SW77,2,2*%
%TO.N,Net-(D77-A)*%
X347471250Y-148835000D03*
%TD*%
D11*
%TO.P,D57,1,K*%
%TO.N,ROW6*%
X113030000Y-137160000D03*
D12*
%TO.P,D57,2,A*%
%TO.N,Net-(D57-A)*%
X113030000Y-129540000D03*
%TD*%
D10*
%TO.P,SW74,1,1*%
%TO.N,COL4*%
X284765000Y-146295000D03*
%TO.P,SW74,2,2*%
%TO.N,Net-(D74-A)*%
X278415000Y-148835000D03*
%TD*%
%TO.P,SW44,1,1*%
%TO.N,COL4*%
X96646250Y-108195000D03*
%TO.P,SW44,2,2*%
%TO.N,Net-(D44-A)*%
X90296250Y-110735000D03*
%TD*%
D11*
%TO.P,D27,1,K*%
%TO.N,ROW3*%
X308610000Y-78740000D03*
D12*
%TO.P,D27,2,A*%
%TO.N,Net-(D27-A)*%
X308610000Y-71120000D03*
%TD*%
D10*
%TO.P,SW18,1,1*%
%TO.N,COL8*%
X120458750Y-70095000D03*
%TO.P,SW18,2,2*%
%TO.N,Net-(D18-A)*%
X114108750Y-72635000D03*
%TD*%
%TO.P,SW69,1,1*%
%TO.N,COL9*%
X70452500Y-146295000D03*
%TO.P,SW69,2,2*%
%TO.N,Net-(D69-A)*%
X64102500Y-148835000D03*
%TD*%
D11*
%TO.P,D52,1,K*%
%TO.N,ROW6*%
X255270000Y-118110000D03*
D12*
%TO.P,D52,2,A*%
%TO.N,Net-(D52-A)*%
X255270000Y-110490000D03*
%TD*%
D10*
%TO.P,SW60,1,1*%
%TO.N,COL10*%
X163321250Y-127245000D03*
%TO.P,SW60,2,2*%
%TO.N,Net-(D60-A)*%
X156971250Y-129785000D03*
%TD*%
%TO.P,SW51,1,1*%
%TO.N,COL1*%
X229996250Y-108195000D03*
%TO.P,SW51,2,2*%
%TO.N,Net-(D51-A)*%
X223646250Y-110735000D03*
%TD*%
%TO.P,SW30,1,1*%
%TO.N,COL10*%
X91883750Y-89145000D03*
%TO.P,SW30,2,2*%
%TO.N,Net-(D30-A)*%
X85533750Y-91685000D03*
%TD*%
%TO.P,SW54,1,1*%
%TO.N,COL4*%
X299052500Y-108195000D03*
%TO.P,SW54,2,2*%
%TO.N,Net-(D54-A)*%
X292702500Y-110735000D03*
%TD*%
D11*
%TO.P,D30,1,K*%
%TO.N,ROW3*%
X99060000Y-99060000D03*
D12*
%TO.P,D30,2,A*%
%TO.N,Net-(D30-A)*%
X99060000Y-91440000D03*
%TD*%
D11*
%TO.P,D49,1,K*%
%TO.N,ROW5*%
X198120000Y-118110000D03*
D12*
%TO.P,D49,2,A*%
%TO.N,Net-(D49-A)*%
X198120000Y-110490000D03*
%TD*%
D11*
%TO.P,D18,1,K*%
%TO.N,ROW2*%
X127000000Y-78740000D03*
D12*
%TO.P,D18,2,A*%
%TO.N,Net-(D18-A)*%
X127000000Y-71120000D03*
%TD*%
D11*
%TO.P,D7,1,K*%
%TO.N,ROW1*%
X194056000Y-48514000D03*
D12*
%TO.P,D7,2,A*%
%TO.N,Net-(D7-A)*%
X194056000Y-40894000D03*
%TD*%
D10*
%TO.P,SW14,1,1*%
%TO.N,COL4*%
X44258750Y-70095000D03*
%TO.P,SW14,2,2*%
%TO.N,Net-(D14-A)*%
X37908750Y-72635000D03*
%TD*%
D11*
%TO.P,D78,1,K*%
%TO.N,ROW8*%
X379730000Y-156210000D03*
D12*
%TO.P,D78,2,A*%
%TO.N,Net-(D78-A)*%
X379730000Y-148590000D03*
%TD*%
D10*
%TO.P,SW10,1,1*%
%TO.N,COL10*%
X253808750Y-41520000D03*
%TO.P,SW10,2,2*%
%TO.N,Net-(D10-A)*%
X247458750Y-44060000D03*
%TD*%
%TO.P,SW40,1,1*%
%TO.N,COL10*%
X282383750Y-89145000D03*
%TO.P,SW40,2,2*%
%TO.N,Net-(D40-A)*%
X276033750Y-91685000D03*
%TD*%
D11*
%TO.P,D26,1,K*%
%TO.N,ROW3*%
X279400000Y-78740000D03*
D12*
%TO.P,D26,2,A*%
%TO.N,Net-(D26-A)*%
X279400000Y-71120000D03*
%TD*%
D11*
%TO.P,D74,1,K*%
%TO.N,ROW8*%
X292100000Y-156210000D03*
D12*
%TO.P,D74,2,A*%
%TO.N,Net-(D74-A)*%
X292100000Y-148590000D03*
%TD*%
D11*
%TO.P,D76,1,K*%
%TO.N,ROW8*%
X341630000Y-156210000D03*
D12*
%TO.P,D76,2,A*%
%TO.N,Net-(D76-A)*%
X341630000Y-148590000D03*
%TD*%
D11*
%TO.P,D64,1,K*%
%TO.N,ROW7*%
X246380000Y-137160000D03*
D12*
%TO.P,D64,2,A*%
%TO.N,Net-(D64-A)*%
X246380000Y-129540000D03*
%TD*%
D11*
%TO.P,D36,1,K*%
%TO.N,ROW4*%
X213360000Y-99060000D03*
D12*
%TO.P,D36,2,A*%
%TO.N,Net-(D36-A)*%
X213360000Y-91440000D03*
%TD*%
D11*
%TO.P,D55,1,K*%
%TO.N,ROW6*%
X63500000Y-137160000D03*
D12*
%TO.P,D55,2,A*%
%TO.N,Net-(D55-A)*%
X63500000Y-129540000D03*
%TD*%
D11*
%TO.P,D68,1,K*%
%TO.N,ROW7*%
X53340000Y-154940000D03*
D12*
%TO.P,D68,2,A*%
%TO.N,Net-(D68-A)*%
X53340000Y-147320000D03*
%TD*%
D10*
%TO.P,SW42,1,1*%
%TO.N,COL2*%
X51402500Y-108195000D03*
%TO.P,SW42,2,2*%
%TO.N,Net-(D42-A)*%
X45052500Y-110735000D03*
%TD*%
D11*
%TO.P,D34,1,K*%
%TO.N,ROW4*%
X175260000Y-99060000D03*
D12*
%TO.P,D34,2,A*%
%TO.N,Net-(D34-A)*%
X175260000Y-91440000D03*
%TD*%
D11*
%TO.P,D15,1,K*%
%TO.N,ROW2*%
X70612000Y-78486000D03*
D12*
%TO.P,D15,2,A*%
%TO.N,Net-(D15-A)*%
X70612000Y-70866000D03*
%TD*%
D11*
%TO.P,D8,1,K*%
%TO.N,ROW1*%
X212852000Y-48768000D03*
D12*
%TO.P,D8,2,A*%
%TO.N,Net-(D8-A)*%
X212852000Y-41148000D03*
%TD*%
D11*
%TO.P,D12,1,K*%
%TO.N,ROW2*%
X299212000Y-49530000D03*
D12*
%TO.P,D12,2,A*%
%TO.N,Net-(D12-A)*%
X299212000Y-41910000D03*
%TD*%
D10*
%TO.P,SW53,1,1*%
%TO.N,COL3*%
X268096250Y-108195000D03*
%TO.P,SW53,2,2*%
%TO.N,Net-(D53-A)*%
X261746250Y-110735000D03*
%TD*%
%TO.P,SW52,1,1*%
%TO.N,COL2*%
X249046250Y-108195000D03*
%TO.P,SW52,2,2*%
%TO.N,Net-(D52-A)*%
X242696250Y-110735000D03*
%TD*%
%TO.P,SW39,1,1*%
%TO.N,COL9*%
X263333750Y-89145000D03*
%TO.P,SW39,2,2*%
%TO.N,Net-(D39-A)*%
X256983750Y-91685000D03*
%TD*%
D11*
%TO.P,D23,1,K*%
%TO.N,ROW3*%
X222250000Y-78740000D03*
D12*
%TO.P,D23,2,A*%
%TO.N,Net-(D23-A)*%
X222250000Y-71120000D03*
%TD*%
D11*
%TO.P,D41,1,K*%
%TO.N,ROW5*%
X313690000Y-99060000D03*
D12*
%TO.P,D41,2,A*%
%TO.N,Net-(D41-A)*%
X313690000Y-91440000D03*
%TD*%
D10*
%TO.P,SW1,1,1*%
%TO.N,COL1*%
X44258750Y-41520000D03*
%TO.P,SW1,2,2*%
%TO.N,Net-(D1-A)*%
X37908750Y-44060000D03*
%TD*%
D11*
%TO.P,D77,1,K*%
%TO.N,ROW8*%
X360680000Y-156210000D03*
D12*
%TO.P,D77,2,A*%
%TO.N,Net-(D77-A)*%
X360680000Y-148590000D03*
%TD*%
D18*
%TO.N,ROW1*%
X323850000Y-58420000D03*
X345440000Y-62230000D03*
X321310000Y-57150000D03*
X350520000Y-63500000D03*
X350520000Y-66040000D03*
X372110000Y-60960000D03*
X350520000Y-60960000D03*
X337820000Y-60960000D03*
%TO.N,ROW2*%
X341630000Y-31750000D03*
X148433750Y-76200000D03*
X143464453Y-86405547D03*
X165100000Y-77470000D03*
X147320000Y-81280000D03*
X177800000Y-49622000D03*
%TO.N,ROW3*%
X354330000Y-35560000D03*
X342900000Y-35560000D03*
%TO.N,ROW4*%
X337338496Y-52252218D03*
X297180000Y-91440000D03*
X322580000Y-86360000D03*
X330200000Y-83820000D03*
%TO.N,ROW5*%
X337820000Y-92710000D03*
X373380000Y-55880000D03*
%TO.N,ROW6*%
X369570000Y-48260000D03*
X342900000Y-90170000D03*
X339090000Y-93980000D03*
X370840000Y-46990000D03*
%TO.N,COL1*%
X328930000Y-76200000D03*
X325150066Y-80010000D03*
X279400000Y-85090000D03*
X224790000Y-119811000D03*
X181610000Y-117509999D03*
X242570000Y-104140000D03*
X181610000Y-114300000D03*
X170180000Y-85090000D03*
%TO.N,COL2*%
X256540000Y-107950000D03*
X265430000Y-100330000D03*
X82358750Y-41520000D03*
X257810000Y-102870000D03*
X350520000Y-44450000D03*
X172720000Y-90170000D03*
X172720000Y-100330000D03*
X228600000Y-120650000D03*
X251460000Y-109220000D03*
X187960000Y-139700000D03*
X43180000Y-59690000D03*
%TO.N,COL3*%
X152400000Y-48260000D03*
X39370000Y-63500000D03*
X153670000Y-88900000D03*
X163805595Y-115545595D03*
X165100000Y-116840000D03*
X72233750Y-108195000D03*
%TO.N,COL4*%
X245110000Y-97790000D03*
X246380000Y-100330000D03*
X172120000Y-88900000D03*
X246380000Y-102870000D03*
X229870000Y-77470000D03*
X168910000Y-92710000D03*
X243683750Y-97790000D03*
X349250000Y-105410000D03*
X337820000Y-118110000D03*
X214630000Y-77470000D03*
X170180000Y-88900000D03*
%TO.N,COL5*%
X322580000Y-76200000D03*
X259080000Y-100330000D03*
X113030000Y-58420000D03*
X187133750Y-53783750D03*
X275590000Y-81280000D03*
X259080000Y-102870000D03*
X322580000Y-72390000D03*
X110333750Y-58420000D03*
X261620000Y-118710000D03*
%TO.N,COL6*%
X246380000Y-67310000D03*
X110490000Y-105410000D03*
X283210000Y-100330000D03*
X144202909Y-87144000D03*
X283210000Y-102870000D03*
X281940000Y-120650000D03*
X227330000Y-67310000D03*
X132080000Y-104140000D03*
X281940000Y-69850000D03*
X339090000Y-38700000D03*
X158658000Y-49622000D03*
X152400000Y-49622000D03*
X311150000Y-54610000D03*
X149860000Y-80441000D03*
X255270000Y-67310000D03*
X223520000Y-67310000D03*
%TO.N,COL7*%
X361950000Y-127000000D03*
X154940000Y-86360000D03*
X118110000Y-106680000D03*
X225233750Y-53783750D03*
X317500000Y-70019000D03*
X354330000Y-124460000D03*
X193040000Y-53340000D03*
%TO.N,COL8*%
X271780000Y-38100000D03*
X106680000Y-76200000D03*
X243840000Y-100330000D03*
X355219000Y-42291000D03*
%TO.N,COL9*%
X147487968Y-88732005D03*
X293370000Y-93980000D03*
X140970000Y-81280000D03*
X143934314Y-89125314D03*
X172246250Y-110135000D03*
X358140000Y-48260000D03*
X297180000Y-97790000D03*
X143510000Y-117510000D03*
X144780000Y-83820000D03*
X336550000Y-91440000D03*
X143510000Y-114300000D03*
%TO.N,COL10*%
X88900000Y-102870000D03*
X173990000Y-105410000D03*
X88900000Y-119380000D03*
X177530595Y-105679405D03*
X156210000Y-117440000D03*
X100161000Y-90170000D03*
X279400000Y-88900000D03*
X149860000Y-100330000D03*
X93980000Y-124460000D03*
%TD*%
D19*
%TO.N,Net-(Brd1-SDA)*%
X351155000Y-78133750D02*
X351155000Y-65405000D01*
X345948000Y-60198000D02*
X345948000Y-58420000D01*
X351155000Y-65405000D02*
X345948000Y-60198000D01*
%TO.N,Net-(D1-A)*%
X48006000Y-40894000D02*
X51308000Y-40894000D01*
X44840000Y-44060000D02*
X48006000Y-40894000D01*
X37908750Y-44060000D02*
X44840000Y-44060000D01*
%TO.N,Net-(D2-A)*%
X76008750Y-44060000D02*
X86242000Y-44060000D01*
X86242000Y-44060000D02*
X89408000Y-40894000D01*
%TO.N,Net-(D3-A)*%
X105038000Y-44060000D02*
X108204000Y-40894000D01*
X95058750Y-44060000D02*
X105038000Y-44060000D01*
%TO.N,Net-(D4-A)*%
X124206000Y-40894000D02*
X127508000Y-40894000D01*
X121040000Y-44060000D02*
X124206000Y-40894000D01*
X114108750Y-44060000D02*
X121040000Y-44060000D01*
%TO.N,Net-(D5-A)*%
X133158750Y-44060000D02*
X143138000Y-44060000D01*
X143138000Y-44060000D02*
X146304000Y-40894000D01*
%TO.N,Net-(D6-A)*%
X172094000Y-44060000D02*
X175260000Y-40894000D01*
X161733750Y-44060000D02*
X172094000Y-44060000D01*
%TO.N,Net-(D7-A)*%
X190890000Y-44060000D02*
X194056000Y-40894000D01*
X180783750Y-44060000D02*
X190890000Y-44060000D01*
%TO.N,Net-(D8-A)*%
X199833750Y-44060000D02*
X209940000Y-44060000D01*
X209940000Y-44060000D02*
X212852000Y-41148000D01*
%TO.N,Net-(D9-A)*%
X230006000Y-44060000D02*
X232664000Y-41402000D01*
X218883750Y-44060000D02*
X230006000Y-44060000D01*
%TO.N,Net-(D10-A)*%
X257946000Y-44060000D02*
X260604000Y-41402000D01*
X247458750Y-44060000D02*
X257946000Y-44060000D01*
%TO.N,Net-(D11-A)*%
X273440000Y-44060000D02*
X276352000Y-41148000D01*
X276352000Y-41148000D02*
X279400000Y-41148000D01*
X266508750Y-44060000D02*
X273440000Y-44060000D01*
%TO.N,Net-(D12-A)*%
X297062000Y-44060000D02*
X299212000Y-41910000D01*
X285558750Y-44060000D02*
X297062000Y-44060000D01*
%TO.N,Net-(D13-A)*%
X304608750Y-44060000D02*
X315858000Y-44060000D01*
X315858000Y-44060000D02*
X318008000Y-41910000D01*
%TO.N,Net-(D14-A)*%
X49539000Y-72635000D02*
X51308000Y-70866000D01*
X37908750Y-72635000D02*
X49539000Y-72635000D01*
%TO.N,Net-(D15-A)*%
X68843000Y-72635000D02*
X70612000Y-70866000D01*
X56958750Y-72635000D02*
X68843000Y-72635000D01*
%TO.N,Net-(D16-A)*%
X76008750Y-72635000D02*
X87385000Y-72635000D01*
X87385000Y-72635000D02*
X88900000Y-71120000D01*
%TO.N,Net-(D17-A)*%
X95058750Y-72635000D02*
X106435000Y-72635000D01*
X106435000Y-72635000D02*
X107950000Y-71120000D01*
%TO.N,Net-(D18-A)*%
X125485000Y-72635000D02*
X127000000Y-71120000D01*
X114108750Y-72635000D02*
X125485000Y-72635000D01*
%TO.N,Net-(D19-A)*%
X144535000Y-72635000D02*
X146050000Y-71120000D01*
X133158750Y-72635000D02*
X144535000Y-72635000D01*
%TO.N,Net-(D20-A)*%
X163585000Y-72635000D02*
X165100000Y-71120000D01*
X152208750Y-72635000D02*
X163585000Y-72635000D01*
%TO.N,Net-(D21-A)*%
X171258750Y-72635000D02*
X182635000Y-72635000D01*
X182635000Y-72635000D02*
X184150000Y-71120000D01*
%TO.N,Net-(D22-A)*%
X201685000Y-72635000D02*
X203200000Y-71120000D01*
X190308750Y-72635000D02*
X201685000Y-72635000D01*
%TO.N,Net-(D23-A)*%
X209358750Y-72635000D02*
X220735000Y-72635000D01*
X220735000Y-72635000D02*
X222250000Y-71120000D01*
%TO.N,Net-(D24-A)*%
X239785000Y-72635000D02*
X241300000Y-71120000D01*
X228408750Y-72635000D02*
X239785000Y-72635000D01*
%TO.N,Net-(D25-A)*%
X247458750Y-72635000D02*
X258835000Y-72635000D01*
X258835000Y-72635000D02*
X260350000Y-71120000D01*
%TO.N,Net-(D26-A)*%
X266508750Y-72635000D02*
X277885000Y-72635000D01*
X277885000Y-72635000D02*
X279400000Y-71120000D01*
%TO.N,Net-(D27-A)*%
X307095000Y-72635000D02*
X308610000Y-71120000D01*
X295083750Y-72635000D02*
X307095000Y-72635000D01*
%TO.N,Net-(D28-A)*%
X42671250Y-91685000D02*
X55635000Y-91685000D01*
X55635000Y-91685000D02*
X55880000Y-91440000D01*
%TO.N,Net-(D29-A)*%
X66483750Y-91685000D02*
X79765000Y-91685000D01*
X79765000Y-91685000D02*
X80010000Y-91440000D01*
%TO.N,Net-(D30-A)*%
X98815000Y-91685000D02*
X99060000Y-91440000D01*
X85533750Y-91685000D02*
X98815000Y-91685000D01*
%TO.N,Net-(D31-A)*%
X117865000Y-91685000D02*
X118110000Y-91440000D01*
X104583750Y-91685000D02*
X117865000Y-91685000D01*
%TO.N,Net-(D32-A)*%
X123633750Y-91685000D02*
X136915000Y-91685000D01*
X136915000Y-91685000D02*
X137160000Y-91440000D01*
%TO.N,Net-(D33-A)*%
X142683750Y-91685000D02*
X155965000Y-91685000D01*
X155965000Y-91685000D02*
X156210000Y-91440000D01*
%TO.N,Net-(D34-A)*%
X175015000Y-91685000D02*
X175260000Y-91440000D01*
X161733750Y-91685000D02*
X175015000Y-91685000D01*
%TO.N,Net-(D35-A)*%
X180783750Y-91685000D02*
X194065000Y-91685000D01*
X194065000Y-91685000D02*
X194310000Y-91440000D01*
%TO.N,Net-(D36-A)*%
X213115000Y-91685000D02*
X213360000Y-91440000D01*
X199833750Y-91685000D02*
X213115000Y-91685000D01*
%TO.N,Net-(D37-A)*%
X218883750Y-91685000D02*
X232165000Y-91685000D01*
X232165000Y-91685000D02*
X232410000Y-91440000D01*
%TO.N,Net-(D38-A)*%
X237933750Y-91685000D02*
X251215000Y-91685000D01*
X251215000Y-91685000D02*
X251460000Y-91440000D01*
%TO.N,Net-(D39-A)*%
X270265000Y-91685000D02*
X270510000Y-91440000D01*
X256983750Y-91685000D02*
X270265000Y-91685000D01*
%TO.N,Net-(D40-A)*%
X276033750Y-91685000D02*
X289315000Y-91685000D01*
X289315000Y-91685000D02*
X289560000Y-91440000D01*
%TO.N,Net-(D41-A)*%
X313445000Y-91685000D02*
X313690000Y-91440000D01*
X299846250Y-91685000D02*
X313445000Y-91685000D01*
%TO.N,Net-(D42-A)*%
X58175000Y-110735000D02*
X58420000Y-110490000D01*
X45052500Y-110735000D02*
X58175000Y-110735000D01*
%TO.N,Net-(D43-A)*%
X83575000Y-110735000D02*
X83820000Y-110490000D01*
X71246250Y-110735000D02*
X83575000Y-110735000D01*
%TO.N,Net-(D44-A)*%
X102625000Y-110735000D02*
X102870000Y-110490000D01*
X90296250Y-110735000D02*
X102625000Y-110735000D01*
%TO.N,Net-(D45-A)*%
X109346250Y-110735000D02*
X121675000Y-110735000D01*
X121675000Y-110735000D02*
X121920000Y-110490000D01*
%TO.N,Net-(D46-A)*%
X140725000Y-110735000D02*
X140970000Y-110490000D01*
X128396250Y-110735000D02*
X140725000Y-110735000D01*
%TO.N,Net-(D47-A)*%
X147446250Y-110735000D02*
X159775000Y-110735000D01*
X159775000Y-110735000D02*
X160020000Y-110490000D01*
%TO.N,Net-(D48-A)*%
X178825000Y-110735000D02*
X179070000Y-110490000D01*
X166496250Y-110735000D02*
X178825000Y-110735000D01*
%TO.N,Net-(D49-A)*%
X197875000Y-110735000D02*
X198120000Y-110490000D01*
X185546250Y-110735000D02*
X197875000Y-110735000D01*
%TO.N,Net-(D50-A)*%
X204596250Y-110735000D02*
X216925000Y-110735000D01*
X216925000Y-110735000D02*
X217170000Y-110490000D01*
%TO.N,Net-(D51-A)*%
X223646250Y-110735000D02*
X235975000Y-110735000D01*
X235975000Y-110735000D02*
X236220000Y-110490000D01*
%TO.N,Net-(D52-A)*%
X242696250Y-110735000D02*
X255025000Y-110735000D01*
X255025000Y-110735000D02*
X255270000Y-110490000D01*
%TO.N,Net-(D53-A)*%
X274075000Y-110735000D02*
X274320000Y-110490000D01*
X261746250Y-110735000D02*
X274075000Y-110735000D01*
%TO.N,Net-(D54-A)*%
X292702500Y-110735000D02*
X305825000Y-110735000D01*
X305825000Y-110735000D02*
X306070000Y-110490000D01*
%TO.N,Net-(D55-A)*%
X49815000Y-129785000D02*
X63255000Y-129785000D01*
X63255000Y-129785000D02*
X63500000Y-129540000D01*
%TO.N,Net-(D56-A)*%
X93735000Y-129785000D02*
X93980000Y-129540000D01*
X80771250Y-129785000D02*
X93735000Y-129785000D01*
%TO.N,Net-(D57-A)*%
X99821250Y-129785000D02*
X112785000Y-129785000D01*
X112785000Y-129785000D02*
X113030000Y-129540000D01*
%TO.N,Net-(D58-A)*%
X118871250Y-129785000D02*
X131835000Y-129785000D01*
X131835000Y-129785000D02*
X132080000Y-129540000D01*
%TO.N,Net-(D59-A)*%
X150885000Y-129785000D02*
X151130000Y-129540000D01*
X137921250Y-129785000D02*
X150885000Y-129785000D01*
%TO.N,Net-(D60-A)*%
X156971250Y-129785000D02*
X169935000Y-129785000D01*
X169935000Y-129785000D02*
X170180000Y-129540000D01*
%TO.N,Net-(D61-A)*%
X176021250Y-129785000D02*
X188985000Y-129785000D01*
X188985000Y-129785000D02*
X189230000Y-129540000D01*
%TO.N,Net-(D62-A)*%
X208035000Y-129785000D02*
X208280000Y-129540000D01*
X195071250Y-129785000D02*
X208035000Y-129785000D01*
%TO.N,Net-(D64-A)*%
X233171250Y-129785000D02*
X246135000Y-129785000D01*
X246135000Y-129785000D02*
X246380000Y-129540000D01*
%TO.N,Net-(D65-A)*%
X252221250Y-129785000D02*
X265185000Y-129785000D01*
X265185000Y-129785000D02*
X265430000Y-129540000D01*
%TO.N,Net-(D66-A)*%
X287940000Y-129785000D02*
X300745000Y-129785000D01*
X300745000Y-129785000D02*
X302260000Y-128270000D01*
%TO.N,Net-(D67-A)*%
X347471250Y-129785000D02*
X360435000Y-129785000D01*
X360435000Y-129785000D02*
X360680000Y-129540000D01*
%TO.N,Net-(D63-A)*%
X227085000Y-129785000D02*
X227330000Y-129540000D01*
X214121250Y-129785000D02*
X227085000Y-129785000D01*
%TO.N,Net-(D68-A)*%
X40290000Y-148835000D02*
X51825000Y-148835000D01*
X51825000Y-148835000D02*
X53340000Y-147320000D01*
%TO.N,Net-(D69-A)*%
X75955000Y-148835000D02*
X77470000Y-147320000D01*
X64102500Y-148835000D02*
X75955000Y-148835000D01*
%TO.N,Net-(D70-A)*%
X100085000Y-148835000D02*
X101600000Y-147320000D01*
X87915000Y-148835000D02*
X100085000Y-148835000D01*
%TO.N,Net-(D71-A)*%
X159352500Y-148835000D02*
X172475000Y-148835000D01*
X172475000Y-148835000D02*
X172720000Y-148590000D01*
%TO.N,Net-(D72-A)*%
X243595000Y-148835000D02*
X243840000Y-148590000D01*
X230790000Y-148835000D02*
X243595000Y-148835000D01*
%TO.N,Net-(D73-A)*%
X254602500Y-148835000D02*
X267725000Y-148835000D01*
X267725000Y-148835000D02*
X267970000Y-148590000D01*
%TO.N,Net-(D74-A)*%
X291855000Y-148835000D02*
X292100000Y-148590000D01*
X278415000Y-148835000D02*
X291855000Y-148835000D01*
%TO.N,Net-(D75-A)*%
X315985000Y-148835000D02*
X316230000Y-148590000D01*
X302227500Y-148835000D02*
X315985000Y-148835000D01*
%TO.N,Net-(D76-A)*%
X328421250Y-148835000D02*
X341385000Y-148835000D01*
X341385000Y-148835000D02*
X341630000Y-148590000D01*
%TO.N,Net-(D77-A)*%
X347471250Y-148835000D02*
X360435000Y-148835000D01*
X360435000Y-148835000D02*
X360680000Y-148590000D01*
%TO.N,Net-(D78-A)*%
X379485000Y-148835000D02*
X379730000Y-148590000D01*
X366521250Y-148835000D02*
X379485000Y-148835000D01*
%TO.N,Net-(Brd1-GND)*%
X343535000Y-58547000D02*
X343408000Y-58420000D01*
X343535000Y-78133750D02*
X343535000Y-58547000D01*
%TO.N,ROW1*%
X89845000Y-48951000D02*
X127000000Y-48951000D01*
X268732000Y-57150000D02*
X260604000Y-49022000D01*
X384810000Y-60960000D02*
X372110000Y-60960000D01*
X326390000Y-60960000D02*
X323850000Y-58420000D01*
X350520000Y-66040000D02*
X349250000Y-66040000D01*
X88971000Y-48951000D02*
X89408000Y-48514000D01*
X321310000Y-57150000D02*
X268732000Y-57150000D01*
X127508000Y-48514000D02*
X127437000Y-48514000D01*
X349250000Y-66040000D02*
X345440000Y-62230000D01*
X385487000Y-41741000D02*
X385487000Y-60283000D01*
X145867000Y-48951000D02*
X146304000Y-48514000D01*
X146304000Y-48514000D02*
X146812000Y-49022000D01*
X51745000Y-48951000D02*
X88971000Y-48951000D01*
X89408000Y-48514000D02*
X89845000Y-48951000D01*
X232664000Y-49022000D02*
X260604000Y-49022000D01*
X127000000Y-48951000D02*
X145867000Y-48951000D01*
X385487000Y-60283000D02*
X384810000Y-60960000D01*
X350520000Y-60960000D02*
X350520000Y-63500000D01*
X51308000Y-48514000D02*
X51745000Y-48951000D01*
X386588000Y-40640000D02*
X385487000Y-41741000D01*
X337820000Y-60960000D02*
X326390000Y-60960000D01*
X146812000Y-49022000D02*
X232664000Y-49022000D01*
X127437000Y-48514000D02*
X127000000Y-48951000D01*
%TO.N,ROW2*%
X165100000Y-77470000D02*
X165100000Y-78740000D01*
X165100000Y-78740000D02*
X146050000Y-78740000D01*
X280162000Y-49530000D02*
X318008000Y-49530000D01*
X146050000Y-81280000D02*
X146050000Y-80242000D01*
X143464453Y-86405547D02*
X146050000Y-83820000D01*
X107950000Y-78740000D02*
X127000000Y-78740000D01*
X146050000Y-81280000D02*
X147320000Y-81280000D01*
X177800000Y-49530000D02*
X177800000Y-49622000D01*
X51308000Y-78486000D02*
X164846000Y-78486000D01*
X164846000Y-78486000D02*
X165100000Y-78740000D01*
X165044000Y-77526000D02*
X165100000Y-77470000D01*
X168386750Y-58943250D02*
X177800000Y-49530000D01*
X279400000Y-48768000D02*
X280162000Y-49530000D01*
X149759750Y-77526000D02*
X165044000Y-77526000D01*
X148433750Y-76200000D02*
X149759750Y-77526000D01*
X165100000Y-77470000D02*
X168386750Y-74183250D01*
X168386750Y-74183250D02*
X168386750Y-58943250D01*
X146050000Y-83820000D02*
X146050000Y-81280000D01*
X375158000Y-31750000D02*
X384048000Y-40640000D01*
X341630000Y-31750000D02*
X375158000Y-31750000D01*
%TO.N,ROW3*%
X91860057Y-99060000D02*
X88299000Y-102621057D01*
X88651057Y-103471000D02*
X109866436Y-103471000D01*
X147632750Y-89725314D02*
X148453436Y-90546000D01*
X150434750Y-89725314D02*
X166682750Y-89725314D01*
X184150000Y-79589943D02*
X184150000Y-78740000D01*
X149614064Y-90546000D02*
X150434750Y-89725314D01*
X55880000Y-99060000D02*
X99060000Y-99060000D01*
X99060000Y-99060000D02*
X91860057Y-99060000D01*
X342900000Y-35560000D02*
X354330000Y-35560000D01*
X88299000Y-102621057D02*
X88299000Y-103118943D01*
X123053436Y-90284000D02*
X124214064Y-90284000D01*
X184150000Y-78740000D02*
X279400000Y-78740000D01*
X88299000Y-103118943D02*
X88651057Y-103471000D01*
X124214064Y-90284000D02*
X124914014Y-90983950D01*
X124914014Y-90983950D02*
X136059000Y-90983950D01*
X167728436Y-90771000D02*
X172968943Y-90771000D01*
X137317636Y-89725314D02*
X147632750Y-89725314D01*
X166682750Y-89725314D02*
X167728436Y-90771000D01*
X308610000Y-78740000D02*
X279400000Y-78740000D01*
X109866436Y-103471000D02*
X123053436Y-90284000D01*
X172968943Y-90771000D02*
X184150000Y-79589943D01*
X136059000Y-90983950D02*
X137317636Y-89725314D01*
X148453436Y-90546000D02*
X149614064Y-90546000D01*
%TO.N,ROW4*%
X350877000Y-56731000D02*
X364829000Y-42779000D01*
X290830000Y-99060000D02*
X297180000Y-92710000D01*
X289560000Y-99060000D02*
X290830000Y-99060000D01*
X365816950Y-39534000D02*
X375322000Y-39534000D01*
X341076269Y-56731000D02*
X350877000Y-56731000D01*
X325120000Y-83820000D02*
X330200000Y-83820000D01*
X322580000Y-86360000D02*
X325120000Y-83820000D01*
X364829000Y-42779000D02*
X364829000Y-40521950D01*
X337338496Y-52993227D02*
X341076269Y-56731000D01*
X297180000Y-92710000D02*
X297180000Y-91440000D01*
X337338496Y-52252218D02*
X337338496Y-52993227D01*
X375322000Y-39534000D02*
X376428000Y-40640000D01*
X364829000Y-40521950D02*
X365816950Y-39534000D01*
X118110000Y-99060000D02*
X289560000Y-99060000D01*
%TO.N,ROW5*%
X306070000Y-106680000D02*
X225719936Y-106680000D01*
X217170000Y-115229936D02*
X217170000Y-118110000D01*
X313690000Y-99060000D02*
X331470000Y-99060000D01*
X58420000Y-118110000D02*
X217170000Y-118110000D01*
X373888000Y-55372000D02*
X373888000Y-40640000D01*
X225719936Y-106680000D02*
X217170000Y-115229936D01*
X373380000Y-55880000D02*
X373888000Y-55372000D01*
X313690000Y-99060000D02*
X306070000Y-106680000D01*
X331470000Y-99060000D02*
X337820000Y-92710000D01*
%TO.N,ROW6*%
X235119000Y-119211000D02*
X184613936Y-119211000D01*
X63500000Y-137160000D02*
X170180000Y-137160000D01*
X367702000Y-50128000D02*
X369570000Y-48260000D01*
X342900000Y-90170000D02*
X352461173Y-90170000D01*
X352461173Y-90170000D02*
X367702000Y-74929173D01*
X367702000Y-74929173D02*
X367702000Y-50128000D01*
X170180000Y-133644936D02*
X170180000Y-137160000D01*
X236220000Y-118110000D02*
X235119000Y-119211000D01*
X236220000Y-118110000D02*
X306070000Y-118110000D01*
X370840000Y-46990000D02*
X371348000Y-46482000D01*
X314960000Y-118110000D02*
X339090000Y-93980000D01*
X371348000Y-46482000D02*
X371348000Y-40640000D01*
X306070000Y-118110000D02*
X314960000Y-118110000D01*
X184613936Y-119211000D02*
X170180000Y-133644936D01*
%TO.N,ROW7*%
X370247000Y-140580050D02*
X370247000Y-48853000D01*
X327716000Y-153726000D02*
X357101050Y-153726000D01*
X300990000Y-137160000D02*
X302260000Y-135890000D01*
X315731186Y-137160000D02*
X307176500Y-145714686D01*
X366268000Y-43688000D02*
X366268000Y-40640000D01*
X321479000Y-147489000D02*
X327716000Y-153726000D01*
X265430000Y-137160000D02*
X300990000Y-137160000D01*
X360680000Y-137160000D02*
X315731186Y-137160000D01*
X370840000Y-48260000D02*
X366268000Y-43688000D01*
X360680000Y-137160000D02*
X303530000Y-137160000D01*
X53340000Y-154940000D02*
X101600000Y-154940000D01*
X307997186Y-147696000D02*
X315566950Y-147696000D01*
X357101050Y-153726000D02*
X370247000Y-140580050D01*
X315773950Y-147489000D02*
X321479000Y-147489000D01*
X307176500Y-145714686D02*
X307176500Y-146875314D01*
X307176500Y-146875314D02*
X307997186Y-147696000D01*
X370247000Y-48853000D02*
X370840000Y-48260000D01*
X189230000Y-137160000D02*
X265430000Y-137160000D01*
X315566950Y-147696000D02*
X315773950Y-147489000D01*
X303530000Y-137160000D02*
X302260000Y-135890000D01*
%TO.N,ROW8*%
X172720000Y-156210000D02*
X341630000Y-156210000D01*
X341630000Y-156210000D02*
X379730000Y-156210000D01*
%TO.N,COL1*%
X325150066Y-80010000D02*
X325150066Y-79979934D01*
X242570000Y-104140000D02*
X286366160Y-104140000D01*
X165885160Y-79841000D02*
X170180000Y-84135840D01*
X190331000Y-129083950D02*
X199802950Y-119612000D01*
X300404936Y-89145000D02*
X306196250Y-89145000D01*
X292430564Y-85090000D02*
X298445250Y-91104686D01*
X298445250Y-91104686D02*
X300404936Y-89145000D01*
X328930000Y-76200000D02*
X340868000Y-64262000D01*
X340868000Y-64262000D02*
X340868000Y-58420000D01*
X170180000Y-84135840D02*
X170180000Y-85090000D01*
X224790000Y-119612000D02*
X224790000Y-119811000D01*
X306196250Y-89145000D02*
X315985000Y-89145000D01*
X190331000Y-129996050D02*
X190331000Y-129083950D01*
X279400000Y-85090000D02*
X292430564Y-85090000D01*
X298445250Y-92060910D02*
X298445250Y-91104686D01*
X286366160Y-104140000D02*
X298445250Y-92060910D01*
X199802950Y-119612000D02*
X224790000Y-119612000D01*
X120237750Y-79841000D02*
X165885160Y-79841000D01*
X174032050Y-146295000D02*
X190331000Y-129996050D01*
X165885160Y-79841000D02*
X168787750Y-76938410D01*
X181610000Y-114300000D02*
X181610000Y-117509999D01*
X325150066Y-79979934D02*
X326106450Y-79023550D01*
X165702500Y-146295000D02*
X174032050Y-146295000D01*
X188492050Y-127245000D02*
X182371250Y-127245000D01*
X325120000Y-80010000D02*
X325150066Y-80010000D01*
X315985000Y-89145000D02*
X325120000Y-80010000D01*
X168787750Y-73124686D02*
X171817436Y-70095000D01*
X171817436Y-70095000D02*
X177608750Y-70095000D01*
X168787750Y-76938410D02*
X168787750Y-73124686D01*
X190331000Y-129083950D02*
X188492050Y-127245000D01*
X110933750Y-89145000D02*
X120237750Y-79841000D01*
%TO.N,COL2*%
X336357000Y-56449000D02*
X338328000Y-58420000D01*
X262289000Y-103471000D02*
X265430000Y-100330000D01*
X195580000Y-125730000D02*
X223520000Y-125730000D01*
X252730000Y-107950000D02*
X256540000Y-107950000D01*
X348399000Y-42329000D02*
X341076269Y-42329000D01*
X201421250Y-127245000D02*
X195335000Y-127245000D01*
X336357000Y-47048269D02*
X336357000Y-56449000D01*
X350520000Y-44450000D02*
X348399000Y-42329000D01*
X129983750Y-89145000D02*
X131384750Y-87744000D01*
X341076269Y-42329000D02*
X336357000Y-47048269D01*
X195335000Y-127245000D02*
X188129000Y-134451000D01*
X257810000Y-102870000D02*
X258411000Y-103471000D01*
X249046250Y-108195000D02*
X250071250Y-109220000D01*
X72253436Y-90546000D02*
X73414064Y-90546000D01*
X46990000Y-59690000D02*
X46990000Y-50945840D01*
X50207000Y-47728840D02*
X50207000Y-54160522D01*
X258411000Y-103471000D02*
X262289000Y-103471000D01*
X251460000Y-109220000D02*
X252730000Y-107950000D01*
X188129000Y-137945160D02*
X196478840Y-146295000D01*
X58525850Y-71653686D02*
X57705164Y-70833000D01*
X47219250Y-79554390D02*
X47219250Y-89891414D01*
X188129000Y-134451000D02*
X188129000Y-137945160D01*
X67700164Y-71653686D02*
X58525850Y-71653686D01*
X223520000Y-125730000D02*
X228600000Y-120650000D01*
X112915064Y-89145000D02*
X129983750Y-89145000D01*
X111514064Y-90546000D02*
X112915064Y-89145000D01*
X56415840Y-41520000D02*
X50207000Y-47728840D01*
X71432750Y-89725314D02*
X72253436Y-90546000D01*
X190867436Y-70095000D02*
X196658750Y-70095000D01*
X131384750Y-87744000D02*
X172720000Y-87744000D01*
X50207000Y-54160522D02*
X67700164Y-71653686D01*
X187960000Y-139700000D02*
X186690000Y-138430000D01*
X250071250Y-109220000D02*
X250190000Y-109220000D01*
X48274836Y-90947000D02*
X49767664Y-90947000D01*
X196478840Y-146295000D02*
X237140000Y-146295000D01*
X110353436Y-90546000D02*
X111514064Y-90546000D01*
X46990000Y-50945840D02*
X56415840Y-41520000D01*
X57705164Y-70833000D02*
X55940640Y-70833000D01*
X73414064Y-90546000D02*
X76216064Y-87744000D01*
X43180000Y-59690000D02*
X46990000Y-59690000D01*
X55940640Y-70833000D02*
X47219250Y-79554390D01*
X186690000Y-138430000D02*
X186690000Y-134620000D01*
X186690000Y-134620000D02*
X195580000Y-125730000D01*
X250190000Y-109220000D02*
X251460000Y-109220000D01*
X76216064Y-87744000D02*
X107551436Y-87744000D01*
X172720000Y-87744000D02*
X172720000Y-90170000D01*
X50989350Y-89725314D02*
X71432750Y-89725314D01*
X49767664Y-90947000D02*
X50989350Y-89725314D01*
X82358750Y-41520000D02*
X56415840Y-41520000D01*
X47219250Y-89891414D02*
X48274836Y-90947000D01*
X172720000Y-87744000D02*
X173218436Y-87744000D01*
X107551436Y-87744000D02*
X110353436Y-90546000D01*
X173218436Y-87744000D02*
X190867436Y-70095000D01*
%TO.N,COL3*%
X101408750Y-41520000D02*
X94178750Y-34290000D01*
X101408750Y-41520000D02*
X103135750Y-39793000D01*
X152400000Y-45432950D02*
X152400000Y-48260000D01*
X163805595Y-115545595D02*
X165100000Y-116840000D01*
X153425000Y-89145000D02*
X153670000Y-88900000D01*
X63078740Y-34290000D02*
X36619370Y-60749370D01*
X146760050Y-39793000D02*
X152400000Y-45432950D01*
X103135750Y-39793000D02*
X146760050Y-39793000D01*
X36619370Y-60749370D02*
X39370000Y-63500000D01*
X149033750Y-89145000D02*
X153425000Y-89145000D01*
X94178750Y-34290000D02*
X63078740Y-34290000D01*
X72233750Y-108195000D02*
X77596250Y-108195000D01*
%TO.N,COL4*%
X117328536Y-96576000D02*
X166517566Y-96576000D01*
X166517566Y-96576000D02*
X168910000Y-94183566D01*
X228967436Y-70095000D02*
X234758750Y-70095000D01*
X337820000Y-118110000D02*
X349250000Y-106680000D01*
X246380000Y-100330000D02*
X246380000Y-102870000D01*
X96646250Y-108195000D02*
X105709536Y-108195000D01*
X214630000Y-77470000D02*
X221592436Y-77470000D01*
X223191218Y-75871218D02*
X228967436Y-70095000D01*
X105709536Y-108195000D02*
X117328536Y-96576000D01*
X243683750Y-97790000D02*
X245110000Y-97790000D01*
X223191218Y-75871218D02*
X224790000Y-77470000D01*
X224790000Y-77470000D02*
X229870000Y-77470000D01*
X349250000Y-106680000D02*
X349250000Y-105410000D01*
X221592436Y-77470000D02*
X223191218Y-75871218D01*
X168910000Y-94183566D02*
X168910000Y-92710000D01*
X170180000Y-88900000D02*
X172120000Y-88900000D01*
%TO.N,COL5*%
X322580000Y-54830950D02*
X338040950Y-39370000D01*
X361781000Y-137945160D02*
X361781000Y-136374840D01*
X344678000Y-39370000D02*
X345948000Y-40640000D01*
X188178500Y-52739000D02*
X245779000Y-52739000D01*
X264692050Y-127245000D02*
X258571250Y-127245000D01*
X322580000Y-72390000D02*
X322580000Y-54830950D01*
X63308750Y-70095000D02*
X59253750Y-66040000D01*
X59253750Y-66040000D02*
X29210000Y-66040000D01*
X258571250Y-121559750D02*
X261620000Y-118511000D01*
X338040950Y-39370000D02*
X344678000Y-39370000D01*
X361465160Y-138261000D02*
X361781000Y-137945160D01*
X29210000Y-128270000D02*
X30480000Y-128270000D01*
X261620000Y-118511000D02*
X261620000Y-118710000D01*
X317500000Y-81280000D02*
X322580000Y-76200000D01*
X245779000Y-52739000D02*
X251460000Y-58420000D01*
X251460000Y-67746250D02*
X253808750Y-70095000D01*
X29210000Y-66040000D02*
X29210000Y-128270000D01*
X259080000Y-102870000D02*
X259080000Y-100330000D01*
X316611500Y-138261000D02*
X361465160Y-138261000D01*
X251460000Y-58420000D02*
X251460000Y-67746250D01*
X360082160Y-134676000D02*
X272123050Y-134676000D01*
X361781000Y-136374840D02*
X360082160Y-134676000D01*
X272123050Y-134676000D02*
X264692050Y-127245000D01*
X275590000Y-81280000D02*
X317500000Y-81280000D01*
X30480000Y-128270000D02*
X31505000Y-127245000D01*
X31505000Y-127245000D02*
X56165000Y-127245000D01*
X308577500Y-146295000D02*
X316611500Y-138261000D01*
X258571250Y-127245000D02*
X258571250Y-121559750D01*
X110333750Y-58420000D02*
X113030000Y-58420000D01*
X187133750Y-53783750D02*
X188178500Y-52739000D01*
%TO.N,COL6*%
X281940000Y-69850000D02*
X281185000Y-69095000D01*
X365760000Y-134533260D02*
X365760000Y-133062950D01*
X330923160Y-38501000D02*
X339090000Y-38501000D01*
X227330000Y-67310000D02*
X246380000Y-67310000D01*
X149860000Y-81486909D02*
X149860000Y-80441000D01*
X334771250Y-146295000D02*
X336172250Y-144894000D01*
X283210000Y-102870000D02*
X283210000Y-100330000D01*
X132020625Y-104199375D02*
X132080000Y-104140000D01*
X223520000Y-67310000D02*
X227330000Y-67310000D01*
X132020625Y-105469375D02*
X132020625Y-104199375D01*
X110490000Y-105410000D02*
X131961250Y-105410000D01*
X358541050Y-125844000D02*
X295691000Y-125844000D01*
X281185000Y-69095000D02*
X273858750Y-69095000D01*
X132020625Y-105469375D02*
X134746250Y-108195000D01*
X365760000Y-133062950D02*
X358541050Y-125844000D01*
X295691000Y-125844000D02*
X294290000Y-127245000D01*
X295691000Y-125844000D02*
X290497000Y-120650000D01*
X131961250Y-105410000D02*
X132020625Y-105469375D01*
X355399260Y-144894000D02*
X365760000Y-134533260D01*
X314814160Y-54610000D02*
X330923160Y-38501000D01*
X290497000Y-120650000D02*
X281940000Y-120650000D01*
X144202909Y-87144000D02*
X149860000Y-81486909D01*
X339090000Y-38501000D02*
X339090000Y-38700000D01*
X158750000Y-49530000D02*
X158658000Y-49622000D01*
X336172250Y-144894000D02*
X355399260Y-144894000D01*
X311150000Y-54610000D02*
X314814160Y-54610000D01*
X152400000Y-49622000D02*
X158658000Y-49622000D01*
X273858750Y-69095000D02*
X272858750Y-70095000D01*
%TO.N,COL7*%
X141707950Y-108195000D02*
X153796250Y-108195000D01*
X131249936Y-106680000D02*
X134165936Y-109596000D01*
X253106000Y-71496000D02*
X258416950Y-71496000D01*
X261218950Y-68694000D02*
X300032750Y-68694000D01*
X365760000Y-130810000D02*
X361950000Y-127000000D01*
X225233750Y-53783750D02*
X235393750Y-53783750D01*
X171450000Y-86360000D02*
X154940000Y-86360000D01*
X258416950Y-71496000D02*
X261218950Y-68694000D01*
X193040000Y-53340000D02*
X193040000Y-64770000D01*
X327660000Y-80010000D02*
X344170000Y-96520000D01*
X301509750Y-70019000D02*
X317500000Y-70019000D01*
X353060000Y-109220000D02*
X356870000Y-113030000D01*
X193040000Y-64770000D02*
X171450000Y-86360000D01*
X118110000Y-106680000D02*
X131249936Y-106680000D01*
X300032750Y-68694000D02*
X301433750Y-70095000D01*
X353821250Y-146295000D02*
X355355000Y-146295000D01*
X134165936Y-109596000D02*
X140306950Y-109596000D01*
X367030000Y-134620000D02*
X367030000Y-132080000D01*
X344170000Y-96520000D02*
X353060000Y-105410000D01*
X353060000Y-105410000D02*
X353060000Y-109220000D01*
X140306950Y-109596000D02*
X141707950Y-108195000D01*
X301433750Y-70095000D02*
X301509750Y-70019000D01*
X356870000Y-121920000D02*
X354330000Y-124460000D01*
X235393750Y-53783750D02*
X253106000Y-71496000D01*
X367030000Y-132080000D02*
X365760000Y-130810000D01*
X356870000Y-113030000D02*
X356870000Y-121920000D01*
X317500000Y-70019000D02*
X317669000Y-70019000D01*
X317669000Y-70019000D02*
X327660000Y-80010000D01*
X355355000Y-146295000D02*
X367030000Y-134620000D01*
%TO.N,COL8*%
X172846250Y-108195000D02*
X180711250Y-100330000D01*
X180711250Y-100330000D02*
X243840000Y-100330000D01*
X49021250Y-78886590D02*
X50522840Y-77385000D01*
X114667436Y-70095000D02*
X120458750Y-70095000D01*
X107236436Y-77526000D02*
X114667436Y-70095000D01*
X271780000Y-38100000D02*
X351028000Y-38100000D01*
X351028000Y-38100000D02*
X349927000Y-39201000D01*
X349927000Y-42587000D02*
X351790000Y-44450000D01*
X105410000Y-77526000D02*
X107236436Y-77526000D01*
X50522840Y-77385000D02*
X52093160Y-77385000D01*
X69511000Y-77700840D02*
X69826840Y-77385000D01*
X105410000Y-77526000D02*
X105410000Y-77470000D01*
X78655000Y-77385000D02*
X78796000Y-77526000D01*
X105410000Y-77470000D02*
X106680000Y-76200000D01*
X349927000Y-39201000D02*
X349927000Y-42587000D01*
X52093160Y-77385000D02*
X52409000Y-77700840D01*
X69826840Y-77385000D02*
X78655000Y-77385000D01*
X353060000Y-44450000D02*
X355219000Y-42291000D01*
X78796000Y-77526000D02*
X105410000Y-77526000D01*
X52409000Y-77700840D02*
X69511000Y-77700840D01*
X49021250Y-89145000D02*
X49021250Y-78886590D01*
X351790000Y-44450000D02*
X353060000Y-44450000D01*
%TO.N,COL9*%
X358140000Y-46990000D02*
X358648000Y-46482000D01*
X281803436Y-90546000D02*
X282964064Y-90546000D01*
X56106740Y-71234000D02*
X57539064Y-71234000D01*
X71226950Y-68694000D02*
X138107750Y-68694000D01*
X58359750Y-72054686D02*
X67866264Y-72054686D01*
X51002564Y-89145000D02*
X49601564Y-90546000D01*
X290016050Y-90339000D02*
X293370000Y-93692950D01*
X179807950Y-108195000D02*
X191896250Y-108195000D01*
X138107750Y-68694000D02*
X139508750Y-70095000D01*
X49601564Y-90546000D02*
X48440936Y-90546000D01*
X177867950Y-110135000D02*
X179807950Y-108195000D01*
X263914064Y-89725314D02*
X280982750Y-89725314D01*
X293370000Y-93692950D02*
X293370000Y-93980000D01*
X297180000Y-97790000D02*
X330200000Y-97790000D01*
X72833750Y-89145000D02*
X51002564Y-89145000D01*
X147487968Y-88732005D02*
X146895659Y-89324314D01*
X143510000Y-114300000D02*
X143510000Y-117510000D01*
X146895659Y-89324314D02*
X143934314Y-89324314D01*
X47620250Y-79720490D02*
X56106740Y-71234000D01*
X57539064Y-71234000D02*
X58359750Y-72054686D01*
X67866264Y-72054686D02*
X71226950Y-68694000D01*
X143934314Y-89324314D02*
X143735314Y-89125314D01*
X280982750Y-89725314D02*
X281803436Y-90546000D01*
X140970000Y-86360000D02*
X143510000Y-83820000D01*
X143510000Y-83820000D02*
X144780000Y-83820000D01*
X282964064Y-90546000D02*
X283171064Y-90339000D01*
X143735314Y-89125314D02*
X143934314Y-89125314D01*
X140970000Y-81280000D02*
X140970000Y-86360000D01*
X263333750Y-89145000D02*
X263914064Y-89725314D01*
X283171064Y-90339000D02*
X290016050Y-90339000D01*
X47620250Y-89725314D02*
X47620250Y-79720490D01*
X330200000Y-97790000D02*
X336550000Y-91440000D01*
X358648000Y-46482000D02*
X358648000Y-40640000D01*
X48440936Y-90546000D02*
X47620250Y-89725314D01*
X358140000Y-48260000D02*
X358140000Y-46990000D01*
X172246250Y-110135000D02*
X177867950Y-110135000D01*
%TO.N,COL10*%
X162560000Y-105410000D02*
X173990000Y-105410000D01*
X279400000Y-31750000D02*
X281940000Y-34290000D01*
X88900000Y-102870000D02*
X97136160Y-102870000D01*
X100161000Y-90001000D02*
X100161000Y-90170000D01*
X152400000Y-100330000D02*
X149860000Y-100330000D01*
X208430655Y-105679405D02*
X210946250Y-108195000D01*
X161121000Y-109051000D02*
X160020000Y-107950000D01*
X354838000Y-34290000D02*
X361188000Y-40640000D01*
X160020000Y-107950000D02*
X162560000Y-105410000D01*
X263578750Y-31750000D02*
X279400000Y-31750000D01*
X282138750Y-88900000D02*
X282383750Y-89145000D01*
X99305000Y-89145000D02*
X91883750Y-89145000D01*
X161121000Y-112529000D02*
X161121000Y-109051000D01*
X97136160Y-102870000D02*
X100161000Y-99845160D01*
X156210000Y-117440000D02*
X161121000Y-112529000D01*
X93980000Y-124460000D02*
X88900000Y-119380000D01*
X160020000Y-107950000D02*
X152400000Y-100330000D01*
X100161000Y-90001000D02*
X99305000Y-89145000D01*
X177530595Y-105679405D02*
X208430655Y-105679405D01*
X253808750Y-41520000D02*
X263578750Y-31750000D01*
X281940000Y-34290000D02*
X354838000Y-34290000D01*
X279400000Y-88900000D02*
X282138750Y-88900000D01*
X100161000Y-99845160D02*
X100161000Y-90170000D01*
%TD*%
M02*
